M48
; DRILL file {KiCad 5.1.4-e60b266~84~ubuntu16.04.1} date Sen 26 Agu 2019 12:52:08  WIB
; FORMAT={-:-/ absolute / metric / decimal}
; #@! TF.CreationDate,2019-08-26T00:52:08+07:00
; #@! TF.GenerationSoftware,Kicad,Pcbnew,5.1.4-e60b266~84~ubuntu16.04.1
; #@! TF.FileFunction,Plated,1,2,PTH
FMAT,2
METRIC
T1C0.800
T2C0.900
T3C1.000
T4C1.100
T5C1.200
T6C1.520
%
G90
G05
T1
X26.391Y-163.246
X26.391Y-165.746
X274.117Y-100.101
X284.277Y-100.101
X80.569Y-163.17
X83.109Y-163.17
X85.649Y-163.17
X205.273Y-162.438
X205.273Y-164.978
X205.273Y-167.518
X205.273Y-170.058
X212.893Y-162.438
X212.893Y-164.978
X212.893Y-167.518
X212.893Y-170.058
X151.765Y-100.101
X161.925Y-100.101
X218.146Y-165.858
X220.686Y-163.318
X220.686Y-168.398
X2.561Y-145.485
X2.561Y-148.025
X2.561Y-150.565
X226.02Y-156.562
X226.02Y-166.722
X128.561Y-145.485
X128.561Y-148.025
X128.561Y-150.565
X94.59Y-100.101
X104.75Y-100.101
X23.561Y-100.101
X33.721Y-100.101
X47.854Y-100.101
X58.014Y-100.101
X197.2Y-162.469
X197.2Y-164.969
X9.195Y-163.246
X9.195Y-165.746
X254.561Y-145.485
X254.561Y-148.025
X254.561Y-150.565
X86.561Y-145.485
X86.561Y-148.025
X86.561Y-150.565
X170.561Y-145.485
X170.561Y-148.025
X170.561Y-150.565
X69.723Y-100.101
X79.883Y-100.101
X130.023Y-100.101
X140.183Y-100.101
X195.351Y-100.101
X205.511Y-100.101
X190.342Y-170.138
X200.502Y-170.138
X216.23Y-100.101
X226.39Y-100.101
X211.136Y-157.012
X221.296Y-157.012
X44.561Y-145.485
X44.561Y-148.025
X44.561Y-150.565
X212.561Y-145.485
X212.561Y-148.025
X212.561Y-150.565
X141.3Y-161.95
X141.3Y-169.57
X143.84Y-161.95
X143.84Y-169.57
X146.38Y-161.95
X146.38Y-169.57
X148.92Y-161.95
X148.92Y-169.57
X151.46Y-161.95
X151.46Y-169.57
X154.0Y-161.95
X154.0Y-169.57
X156.54Y-161.95
X156.54Y-169.57
X159.08Y-161.95
X159.08Y-169.57
X161.62Y-161.95
X161.62Y-169.57
X164.16Y-161.95
X164.16Y-169.57
X234.086Y-100.101
X244.246Y-100.101
X251.282Y-100.101
X261.442Y-100.101
X72.895Y-163.89
X75.435Y-163.89
X77.975Y-163.89
X167.437Y-100.101
X177.597Y-100.101
T2
X65.561Y-106.025
X65.561Y-108.565
X226.561Y-106.025
X226.561Y-108.565
X30.561Y-120.025
X30.561Y-122.565
X233.561Y-106.025
X233.561Y-108.565
X93.561Y-113.025
X93.561Y-115.565
X261.561Y-127.025
X261.561Y-129.565
X121.561Y-141.025
X121.561Y-143.565
X16.561Y-120.025
X16.561Y-122.565
X177.561Y-120.025
X177.561Y-122.565
X149.561Y-134.025
X149.561Y-136.565
X205.561Y-127.025
X205.561Y-129.565
X163.561Y-120.025
X163.561Y-122.565
X142.561Y-106.025
X142.561Y-108.565
X241.561Y-120.025
X241.561Y-122.565
X93.561Y-141.025
X93.561Y-143.565
X51.561Y-120.025
X51.561Y-122.565
X219.561Y-120.025
X219.561Y-122.565
X261.561Y-120.025
X261.561Y-122.565
X261.561Y-106.025
X261.561Y-108.565
X72.561Y-141.025
X72.561Y-143.565
X289.561Y-127.025
X289.561Y-129.565
X37.561Y-106.025
X37.561Y-108.565
X289.561Y-120.025
X289.561Y-122.565
X163.561Y-113.025
X163.561Y-115.565
X237.561Y-113.025
X237.561Y-115.565
X51.561Y-134.025
X51.561Y-136.565
X72.561Y-106.025
X72.561Y-108.565
X261.561Y-134.025
X261.561Y-136.565
X93.561Y-120.025
X93.561Y-122.565
X289.561Y-141.025
X289.561Y-143.565
X135.561Y-127.025
X135.561Y-129.565
X289.561Y-113.025
X289.561Y-115.565
X268.561Y-113.025
X268.561Y-115.565
X156.561Y-134.025
X156.561Y-136.565
X100.561Y-141.025
X100.561Y-143.565
X177.561Y-106.025
X177.561Y-108.565
X79.561Y-120.025
X79.561Y-122.565
X219.561Y-106.025
X219.561Y-108.565
X93.561Y-127.025
X93.561Y-129.565
X58.561Y-106.025
X58.561Y-108.565
X135.561Y-113.025
X135.561Y-115.565
X65.561Y-141.025
X65.561Y-143.565
X177.561Y-127.025
X177.561Y-129.565
X233.561Y-141.025
X233.561Y-143.565
X156.561Y-106.025
X156.561Y-108.565
X79.561Y-127.025
X79.561Y-129.565
X79.561Y-113.025
X79.561Y-115.565
X135.561Y-120.025
X135.561Y-122.565
X163.561Y-127.025
X163.561Y-129.565
X219.561Y-127.025
X219.561Y-129.565
X191.561Y-120.025
X191.561Y-122.565
X261.561Y-141.025
X261.561Y-143.565
X261.561Y-113.025
X261.561Y-115.565
X205.561Y-134.025
X205.561Y-136.565
X9.561Y-113.025
X9.561Y-115.565
X289.561Y-134.025
X289.561Y-136.565
X163.561Y-141.025
X163.561Y-143.565
X23.561Y-134.025
X23.561Y-136.565
X282.561Y-127.025
X282.561Y-129.565
X205.561Y-106.025
X205.561Y-108.565
X205.561Y-120.025
X205.561Y-122.565
X237.561Y-134.025
X237.561Y-136.565
X184.561Y-113.025
X184.561Y-115.565
X205.561Y-141.025
X205.561Y-143.565
X9.561Y-106.025
X9.561Y-108.565
X275.561Y-120.025
X275.561Y-122.565
X107.561Y-141.025
X107.561Y-143.565
X163.561Y-134.025
X163.561Y-136.565
X135.561Y-141.025
X135.561Y-143.565
X177.561Y-113.025
X177.561Y-115.565
X58.561Y-141.025
X58.561Y-143.565
X177.561Y-141.025
X177.561Y-143.565
X289.561Y-106.025
X289.561Y-108.565
X149.561Y-106.025
X149.561Y-108.565
X241.561Y-127.025
X241.561Y-129.565
X93.561Y-134.025
X93.561Y-136.565
X51.561Y-113.025
X51.561Y-115.565
X184.734Y-168.986
X184.734Y-171.526
X114.561Y-141.025
X114.561Y-143.565
X79.561Y-134.025
X79.561Y-136.565
X219.561Y-113.025
X219.561Y-115.565
X93.561Y-106.025
X93.561Y-108.565
X37.561Y-113.025
X37.561Y-115.565
X296.561Y-141.025
X296.561Y-143.565
X219.561Y-141.025
X219.561Y-143.565
X219.561Y-134.025
X219.561Y-136.565
X177.561Y-134.025
X177.561Y-136.565
X51.561Y-127.025
X51.561Y-129.565
X23.561Y-141.025
X23.561Y-143.565
X226.561Y-141.025
X226.561Y-143.565
X205.561Y-113.025
X205.561Y-115.565
X142.561Y-134.025
X142.561Y-136.565
X135.561Y-134.025
X135.561Y-136.565
X23.561Y-127.025
X23.561Y-129.565
X198.561Y-127.025
X198.561Y-129.565
T3
X132.258Y-162.941
X132.258Y-165.481
X132.258Y-168.021
X179.705Y-160.655
X179.705Y-163.195
X148.92Y-155.956
X151.46Y-155.956
X155.575Y-173.253
X158.115Y-173.253
X113.919Y-161.696
X113.919Y-164.236
X163.424Y-148.031
X163.424Y-150.571
X157.836Y-155.956
X160.376Y-155.956
X146.812Y-173.253
X149.352Y-173.253
X96.164Y-170.002
X96.164Y-172.542
X71.12Y-152.146
X71.12Y-154.686
T4
X15.418Y-157.251
X17.958Y-157.251
X20.498Y-157.251
T5
X35.941Y-156.231
X35.941Y-163.981
T6
X3.81Y-135.407
X3.81Y-140.487
T0
M30
