G04 #@! TF.GenerationSoftware,KiCad,Pcbnew,5.1.4-e60b266~84~ubuntu16.04.1*
G04 #@! TF.CreationDate,2019-08-26T00:49:29+07:00*
G04 #@! TF.ProjectId,led_yol,6c65645f-796f-46c2-9e6b-696361645f70,1.0*
G04 #@! TF.SameCoordinates,Original*
G04 #@! TF.FileFunction,Copper,L1,Top*
G04 #@! TF.FilePolarity,Positive*
%FSLAX46Y46*%
G04 Gerber Fmt 4.6, Leading zero omitted, Abs format (unit mm)*
G04 Created by KiCad (PCBNEW 5.1.4-e60b266~84~ubuntu16.04.1) date 2019-08-26 00:49:29*
%MOMM*%
%LPD*%
G04 APERTURE LIST*
%ADD10R,1.500000X1.500000*%
%ADD11C,1.500000*%
%ADD12O,1.600000X1.600000*%
%ADD13R,1.600000X1.600000*%
%ADD14O,1.700000X1.700000*%
%ADD15R,1.700000X1.700000*%
%ADD16C,1.600000*%
%ADD17O,1.905000X2.000000*%
%ADD18R,1.905000X2.000000*%
%ADD19C,1.440000*%
%ADD20C,3.000000*%
%ADD21R,3.000000X3.000000*%
%ADD22C,1.800000*%
%ADD23R,1.800000X1.800000*%
%ADD24C,2.400000*%
G04 APERTURE END LIST*
D10*
X85648800Y-163169600D03*
D11*
X80568800Y-163169600D03*
X83108800Y-163169600D03*
D10*
X72895200Y-163889600D03*
D11*
X77975200Y-163889600D03*
X75435200Y-163889600D03*
D10*
X254560800Y-150565400D03*
D11*
X254560800Y-145485400D03*
X254560800Y-148025400D03*
D10*
X212560800Y-150565400D03*
D11*
X212560800Y-145485400D03*
X212560800Y-148025400D03*
D10*
X170560800Y-150565400D03*
D11*
X170560800Y-145485400D03*
X170560800Y-148025400D03*
D10*
X128560800Y-150565400D03*
D11*
X128560800Y-145485400D03*
X128560800Y-148025400D03*
D10*
X86560800Y-150565400D03*
D11*
X86560800Y-145485400D03*
X86560800Y-148025400D03*
D10*
X2560800Y-150565400D03*
D11*
X2560800Y-145485400D03*
X2560800Y-148025400D03*
D10*
X44560800Y-150565400D03*
D11*
X44560800Y-145485400D03*
X44560800Y-148025400D03*
D12*
X141300200Y-161950400D03*
X164160200Y-169570400D03*
X143840200Y-161950400D03*
X161620200Y-169570400D03*
X146380200Y-161950400D03*
X159080200Y-169570400D03*
X148920200Y-161950400D03*
X156540200Y-169570400D03*
X151460200Y-161950400D03*
X154000200Y-169570400D03*
X154000200Y-161950400D03*
X151460200Y-169570400D03*
X156540200Y-161950400D03*
X148920200Y-169570400D03*
X159080200Y-161950400D03*
X146380200Y-169570400D03*
X161620200Y-161950400D03*
X143840200Y-169570400D03*
X164160200Y-161950400D03*
D13*
X141300200Y-169570400D03*
D14*
X113919000Y-161696400D03*
D15*
X113919000Y-164236400D03*
D14*
X96164400Y-170002200D03*
D15*
X96164400Y-172542200D03*
D14*
X163423600Y-148031200D03*
D15*
X163423600Y-150571200D03*
X179705000Y-163195000D03*
D14*
X179705000Y-160655000D03*
X71120000Y-152146000D03*
D15*
X71120000Y-154686000D03*
X148920200Y-155956000D03*
D14*
X151460200Y-155956000D03*
X160375600Y-155956000D03*
D15*
X157835600Y-155956000D03*
D14*
X155575000Y-173253400D03*
D15*
X158115000Y-173253400D03*
D14*
X146812000Y-173253400D03*
D15*
X149352000Y-173253400D03*
D12*
X221295600Y-157011800D03*
D16*
X211135600Y-157011800D03*
D12*
X226020000Y-156561800D03*
D16*
X226020000Y-166721800D03*
D12*
X212892589Y-162438200D03*
X205272589Y-170058200D03*
X212892589Y-164978200D03*
X205272589Y-167518200D03*
X212892589Y-167518200D03*
X205272589Y-164978200D03*
X212892589Y-170058200D03*
D13*
X205272589Y-162438200D03*
D17*
X20497800Y-157251400D03*
X17957800Y-157251400D03*
D18*
X15417800Y-157251400D03*
D19*
X220686000Y-168398200D03*
X218146000Y-165858200D03*
X220686000Y-163318200D03*
D12*
X284276800Y-100101400D03*
D16*
X274116800Y-100101400D03*
D12*
X261442200Y-100101400D03*
D16*
X251282200Y-100101400D03*
D12*
X244246400Y-100101400D03*
D16*
X234086400Y-100101400D03*
D12*
X226390200Y-100101400D03*
D16*
X216230200Y-100101400D03*
D12*
X205511400Y-100101400D03*
D16*
X195351400Y-100101400D03*
D12*
X177596800Y-100101400D03*
D16*
X167436800Y-100101400D03*
D12*
X161925000Y-100101400D03*
D16*
X151765000Y-100101400D03*
D12*
X140182600Y-100101400D03*
D16*
X130022600Y-100101400D03*
D12*
X104749600Y-100101400D03*
D16*
X94589600Y-100101400D03*
D12*
X79883000Y-100101400D03*
D16*
X69723000Y-100101400D03*
D12*
X58013600Y-100101400D03*
D16*
X47853600Y-100101400D03*
D12*
X33720800Y-100101400D03*
D16*
X23560800Y-100101400D03*
D12*
X200502400Y-170138200D03*
D16*
X190342400Y-170138200D03*
D14*
X132257800Y-168021000D03*
X132257800Y-165481000D03*
D15*
X132257800Y-162941000D03*
D20*
X3810000Y-140487400D03*
D21*
X3810000Y-135407400D03*
D22*
X296560800Y-141025400D03*
D23*
X296560800Y-143565400D03*
D22*
X289560800Y-141025400D03*
D23*
X289560800Y-143565400D03*
D22*
X289560800Y-134025400D03*
D23*
X289560800Y-136565400D03*
D22*
X289560800Y-127025400D03*
D23*
X289560800Y-129565400D03*
D22*
X282560800Y-127025400D03*
D23*
X282560800Y-129565400D03*
D22*
X289560800Y-120025400D03*
D23*
X289560800Y-122565400D03*
D22*
X289560800Y-113025400D03*
D23*
X289560800Y-115565400D03*
D22*
X289560800Y-106025400D03*
D23*
X289560800Y-108565400D03*
D22*
X261560800Y-141025400D03*
D23*
X261560800Y-143565400D03*
D22*
X261560800Y-134025400D03*
D23*
X261560800Y-136565400D03*
D22*
X261560800Y-127025400D03*
D23*
X261560800Y-129565400D03*
D22*
X275560800Y-120025400D03*
D23*
X275560800Y-122565400D03*
D22*
X261560800Y-120025400D03*
D23*
X261560800Y-122565400D03*
D22*
X261560800Y-113025400D03*
D23*
X261560800Y-115565400D03*
D22*
X268560800Y-113025400D03*
D23*
X268560800Y-115565400D03*
D22*
X261560800Y-106025400D03*
D23*
X261560800Y-108565400D03*
D22*
X226560800Y-141025400D03*
D23*
X226560800Y-143565400D03*
D22*
X233560800Y-141025400D03*
D23*
X233560800Y-143565400D03*
D22*
X237560800Y-134025400D03*
D23*
X237560800Y-136565400D03*
D22*
X241560800Y-127025400D03*
D23*
X241560800Y-129565400D03*
D22*
X241560800Y-120025400D03*
D23*
X241560800Y-122565400D03*
D22*
X237560800Y-113025400D03*
D23*
X237560800Y-115565400D03*
D22*
X233560800Y-106025400D03*
D23*
X233560800Y-108565400D03*
D22*
X219560800Y-141025400D03*
D23*
X219560800Y-143565400D03*
D22*
X219560800Y-134025400D03*
D23*
X219560800Y-136565400D03*
D22*
X219560800Y-127025400D03*
D23*
X219560800Y-129565400D03*
D22*
X219560800Y-120025400D03*
D23*
X219560800Y-122565400D03*
D22*
X219560800Y-113025400D03*
D23*
X219560800Y-115565400D03*
D22*
X219560800Y-106025400D03*
D23*
X219560800Y-108565400D03*
D22*
X226560800Y-106025400D03*
D23*
X226560800Y-108565400D03*
D22*
X198560800Y-127025400D03*
D23*
X198560800Y-129565400D03*
D22*
X205560800Y-141025400D03*
D23*
X205560800Y-143565400D03*
D22*
X205560800Y-134025400D03*
D23*
X205560800Y-136565400D03*
D22*
X205560800Y-127025400D03*
D23*
X205560800Y-129565400D03*
D22*
X205560800Y-120025400D03*
D23*
X205560800Y-122565400D03*
D22*
X205560800Y-113025400D03*
D23*
X205560800Y-115565400D03*
D22*
X205560800Y-106025400D03*
D23*
X205560800Y-108565400D03*
D22*
X191560800Y-120025400D03*
D23*
X191560800Y-122565400D03*
D22*
X184560800Y-113025400D03*
D23*
X184560800Y-115565400D03*
D22*
X177560800Y-141025400D03*
D23*
X177560800Y-143565400D03*
D22*
X177560800Y-134025400D03*
D23*
X177560800Y-136565400D03*
D22*
X177560800Y-127025400D03*
D23*
X177560800Y-129565400D03*
D22*
X177560800Y-120025400D03*
D23*
X177560800Y-122565400D03*
D22*
X177560800Y-113025400D03*
D23*
X177560800Y-115565400D03*
D22*
X177560800Y-106025400D03*
D23*
X177560800Y-108565400D03*
D22*
X142560800Y-134025400D03*
D23*
X142560800Y-136565400D03*
D22*
X149560800Y-134025400D03*
D23*
X149560800Y-136565400D03*
D22*
X156560800Y-134025400D03*
D23*
X156560800Y-136565400D03*
D22*
X163560800Y-141025400D03*
D23*
X163560800Y-143565400D03*
D22*
X163560800Y-134025400D03*
D23*
X163560800Y-136565400D03*
D22*
X163560800Y-127025400D03*
D23*
X163560800Y-129565400D03*
D22*
X163560800Y-120025400D03*
D23*
X163560800Y-122565400D03*
D22*
X163560800Y-113025400D03*
D23*
X163560800Y-115565400D03*
D22*
X135560800Y-141025400D03*
D23*
X135560800Y-143565400D03*
D22*
X135560800Y-134025400D03*
D23*
X135560800Y-136565400D03*
D22*
X135560800Y-127025400D03*
D23*
X135560800Y-129565400D03*
D22*
X135560800Y-120025400D03*
D23*
X135560800Y-122565400D03*
D22*
X135560800Y-113025400D03*
D23*
X135560800Y-115565400D03*
D22*
X142560800Y-106025400D03*
D23*
X142560800Y-108565400D03*
D22*
X149560800Y-106025400D03*
D23*
X149560800Y-108565400D03*
D22*
X156560800Y-106025400D03*
D23*
X156560800Y-108565400D03*
D22*
X121560800Y-141025400D03*
D23*
X121560800Y-143565400D03*
D22*
X114560800Y-141025400D03*
D23*
X114560800Y-143565400D03*
D22*
X107560800Y-141025400D03*
D23*
X107560800Y-143565400D03*
D22*
X100560800Y-141025400D03*
D23*
X100560800Y-143565400D03*
D22*
X93560800Y-141025400D03*
D23*
X93560800Y-143565400D03*
D22*
X93560800Y-134025400D03*
D23*
X93560800Y-136565400D03*
D22*
X93560800Y-127025400D03*
D23*
X93560800Y-129565400D03*
D22*
X93560800Y-120025400D03*
D23*
X93560800Y-122565400D03*
D22*
X93560800Y-113025400D03*
D23*
X93560800Y-115565400D03*
D22*
X93560800Y-106025400D03*
D23*
X93560800Y-108565400D03*
D22*
X58560800Y-141025400D03*
D23*
X58560800Y-143565400D03*
D22*
X65560800Y-141025400D03*
D23*
X65560800Y-143565400D03*
D22*
X72560800Y-141025400D03*
D23*
X72560800Y-143565400D03*
D22*
X79560800Y-134025400D03*
D23*
X79560800Y-136565400D03*
D22*
X79560800Y-127025400D03*
D23*
X79560800Y-129565400D03*
D22*
X79560800Y-120025400D03*
D23*
X79560800Y-122565400D03*
D22*
X79560800Y-113025400D03*
D23*
X79560800Y-115565400D03*
D22*
X51560800Y-134025400D03*
D23*
X51560800Y-136565400D03*
D22*
X51560800Y-127025400D03*
D23*
X51560800Y-129565400D03*
D22*
X51560800Y-120025400D03*
D23*
X51560800Y-122565400D03*
D22*
X51560800Y-113025400D03*
D23*
X51560800Y-115565400D03*
D22*
X58560800Y-106025400D03*
D23*
X58560800Y-108565400D03*
D22*
X65560800Y-106025400D03*
D23*
X65560800Y-108565400D03*
D22*
X72560800Y-106025400D03*
D23*
X72560800Y-108565400D03*
D22*
X23560800Y-141025400D03*
D23*
X23560800Y-143565400D03*
D22*
X23560800Y-134025400D03*
D23*
X23560800Y-136565400D03*
D22*
X23560800Y-127025400D03*
D23*
X23560800Y-129565400D03*
D22*
X16560800Y-120025400D03*
D23*
X16560800Y-122565400D03*
D22*
X9560800Y-113025400D03*
D23*
X9560800Y-115565400D03*
D22*
X9560800Y-106025400D03*
D23*
X9560800Y-108565400D03*
D22*
X30560800Y-120025400D03*
D23*
X30560800Y-122565400D03*
D22*
X37560800Y-113025400D03*
D23*
X37560800Y-115565400D03*
D22*
X37560800Y-106025400D03*
D23*
X37560800Y-108565400D03*
D22*
X184734200Y-171526200D03*
D23*
X184734200Y-168986200D03*
D16*
X197200400Y-162469200D03*
D13*
X197200400Y-164969200D03*
D24*
X35941000Y-163981400D03*
X35941000Y-156231400D03*
D16*
X26390600Y-165745800D03*
D13*
X26390600Y-163245800D03*
D16*
X9194800Y-165745800D03*
D13*
X9194800Y-163245800D03*
M02*
