M48
; DRILL file {KiCad 5.1.4-e60b266~84~ubuntu16.04.1} date Sen 30 Sep 2019 12:16:12  WIB
; FORMAT={-:-/ absolute / metric / decimal}
; #@! TF.CreationDate,2019-09-30T00:16:12+07:00
; #@! TF.GenerationSoftware,Kicad,Pcbnew,5.1.4-e60b266~84~ubuntu16.04.1
FMAT,2
METRIC
T1C0.800
T2C0.900
T3C1.000
T4C1.100
T5C1.200
T6C1.520
T7C3.200
%
G90
G05
T1
X189.38Y-96.261
X191.92Y-93.721
X191.92Y-98.801
X215.203Y-33.873
X222.387Y-26.688
X82.188Y-100.275
X84.688Y-100.275
X201.606Y-79.066
X201.606Y-81.606
X201.606Y-84.146
X62.72Y-33.873
X69.904Y-26.688
X30.394Y-33.873
X37.578Y-26.688
X143.997Y-33.873
X151.181Y-26.688
X136.217Y-33.873
X143.401Y-26.688
X98.678Y-94.41
X98.678Y-96.95
X98.678Y-99.49
X128.663Y-33.873
X135.847Y-26.688
X132.112Y-93.13
X132.112Y-100.75
X134.652Y-93.13
X134.652Y-100.75
X137.192Y-93.13
X137.192Y-100.75
X139.732Y-93.13
X139.732Y-100.75
X142.272Y-93.13
X142.272Y-100.75
X144.812Y-93.13
X144.812Y-100.75
X147.352Y-93.13
X147.352Y-100.75
X149.892Y-93.13
X149.892Y-100.75
X152.432Y-93.13
X152.432Y-100.75
X154.972Y-93.13
X154.972Y-100.75
X126.315Y-79.066
X126.315Y-81.606
X126.315Y-84.146
X161.664Y-33.873
X168.848Y-26.688
X168.987Y-33.873
X176.171Y-26.688
X107.493Y-94.41
X107.493Y-96.95
X107.493Y-99.49
X222.493Y-33.873
X229.677Y-26.688
X182.783Y-79.066
X182.783Y-81.606
X182.783Y-84.146
X204.643Y-99.853
X211.827Y-92.669
X163.961Y-79.066
X163.961Y-81.606
X163.961Y-84.146
X145.138Y-79.066
X145.138Y-81.606
X145.138Y-84.146
X102.907Y-33.873
X110.091Y-26.688
X56.951Y-100.275
X59.451Y-100.275
X167.108Y-96.261
X169.608Y-96.261
X88.67Y-79.066
X88.67Y-81.606
X88.67Y-84.146
X249.031Y-33.873
X256.215Y-26.688
X212.081Y-99.853
X219.265Y-92.669
X95.146Y-33.873
X102.33Y-26.688
X256.346Y-33.873
X263.53Y-26.688
X69.829Y-33.873
X77.013Y-26.688
X37.462Y-33.873
X44.646Y-26.688
X176.09Y-33.873
X183.274Y-26.688
X241.145Y-33.873
X248.329Y-26.688
X77.178Y-33.873
X84.362Y-26.688
X107.493Y-79.066
X107.493Y-81.606
X107.493Y-84.146
X44.53Y-33.873
X51.714Y-26.688
X196.846Y-99.853
X204.03Y-92.669
X176.557Y-92.461
X176.557Y-95.001
X176.557Y-97.541
X176.557Y-100.081
X184.177Y-92.461
X184.177Y-95.001
X184.177Y-97.541
X184.177Y-100.081
X110.762Y-33.873
X117.946Y-26.688
X207.576Y-33.873
X214.76Y-26.688
T2
X139.078Y-37.882
X139.078Y-40.422
X95.119Y-49.226
X95.119Y-51.766
X78.547Y-55.07
X78.547Y-57.61
X133.578Y-55.07
X133.578Y-57.61
X51.078Y-72.5
X51.078Y-75.04
X29.078Y-55.029
X29.078Y-57.569
X213.328Y-55.116
X213.328Y-57.656
X240.828Y-66.849
X240.828Y-69.389
X45.578Y-37.882
X45.578Y-40.422
X262.828Y-43.382
X262.828Y-45.922
X62.078Y-43.382
X62.078Y-45.922
X34.578Y-55.029
X34.578Y-57.569
X84.078Y-66.757
X84.078Y-69.297
X128.078Y-37.882
X128.078Y-40.422
X78.578Y-37.882
X78.578Y-40.422
X84.078Y-43.382
X84.078Y-45.922
X128.078Y-60.913
X128.078Y-63.453
X262.828Y-55.029
X262.828Y-57.569
X51.078Y-66.676
X51.078Y-69.216
X262.828Y-66.849
X262.828Y-69.389
X207.828Y-72.716
X207.828Y-75.256
X34.578Y-37.882
X34.578Y-40.422
X262.828Y-72.716
X262.828Y-75.256
X183.078Y-60.913
X183.078Y-63.453
X106.119Y-55.07
X106.119Y-57.61
X166.619Y-72.601
X166.619Y-75.141
X40.078Y-37.882
X40.078Y-40.422
X240.828Y-60.982
X240.828Y-63.522
X246.328Y-55.029
X246.328Y-57.569
X161.078Y-66.757
X161.078Y-69.297
X95.119Y-66.757
X95.119Y-69.297
X67.578Y-72.601
X67.578Y-75.141
X29.078Y-60.853
X29.078Y-63.393
X218.828Y-49.249
X218.828Y-51.789
X73.078Y-72.601
X73.078Y-75.141
X128.078Y-55.07
X128.078Y-57.61
X257.328Y-55.029
X257.328Y-57.569
X229.828Y-37.882
X229.828Y-40.422
X207.828Y-43.382
X207.828Y-45.922
X177.578Y-55.07
X177.578Y-57.61
X117.119Y-49.226
X117.119Y-51.766
X240.828Y-72.716
X240.828Y-75.256
X100.619Y-49.226
X100.619Y-51.766
X51.078Y-60.853
X51.078Y-63.393
X224.328Y-43.382
X224.328Y-45.922
X144.578Y-37.882
X144.578Y-40.422
X117.119Y-66.757
X117.119Y-69.297
X172.078Y-37.882
X172.078Y-40.422
X166.578Y-55.07
X166.578Y-57.61
X128.119Y-72.601
X128.119Y-75.141
X95.119Y-60.913
X95.119Y-63.453
X62.078Y-66.757
X62.078Y-69.297
X218.828Y-55.116
X218.828Y-57.656
X128.078Y-43.382
X128.078Y-45.922
X84.078Y-60.913
X84.078Y-63.453
X29.078Y-66.676
X29.078Y-69.216
X73.047Y-55.07
X73.047Y-57.61
X262.828Y-37.882
X262.828Y-40.422
X128.078Y-49.226
X128.078Y-51.766
X240.828Y-37.882
X240.828Y-40.422
X240.828Y-49.249
X240.828Y-51.789
X229.828Y-72.716
X229.828Y-75.256
X166.578Y-37.882
X166.578Y-40.422
X117.119Y-55.07
X117.119Y-57.61
X229.828Y-66.849
X229.828Y-69.389
X95.078Y-37.882
X95.078Y-40.422
X62.047Y-49.226
X62.047Y-51.766
X161.078Y-43.382
X161.078Y-45.922
X51.078Y-55.029
X51.078Y-57.569
X139.078Y-55.07
X139.078Y-57.61
X150.078Y-37.882
X150.078Y-40.422
X117.119Y-60.913
X117.119Y-63.453
X62.047Y-55.07
X62.047Y-57.61
X161.078Y-49.275
X161.078Y-51.815
X177.619Y-72.601
X177.619Y-75.141
X133.619Y-72.601
X133.619Y-75.141
X62.078Y-60.913
X62.078Y-63.453
X29.078Y-49.206
X29.078Y-51.746
X183.078Y-66.757
X183.078Y-69.297
X84.047Y-55.07
X84.047Y-57.61
X29.078Y-43.382
X29.078Y-45.922
X224.328Y-60.982
X224.328Y-63.522
X207.828Y-66.849
X207.828Y-69.389
X177.578Y-37.882
X177.578Y-40.422
X251.828Y-55.029
X251.828Y-57.569
X207.828Y-37.882
X207.828Y-40.422
X172.078Y-55.07
X172.078Y-57.61
X183.078Y-43.382
X183.078Y-45.922
X117.119Y-72.601
X117.119Y-75.141
X45.578Y-55.029
X45.578Y-57.569
X95.119Y-72.601
X95.119Y-75.141
X269.056Y-72.716
X269.056Y-75.256
X67.578Y-37.882
X67.578Y-40.422
X51.078Y-43.382
X51.078Y-45.922
X117.078Y-37.882
X117.078Y-40.422
X150.119Y-72.601
X150.119Y-75.141
X262.828Y-60.982
X262.828Y-63.522
X95.119Y-55.07
X95.119Y-57.61
X51.078Y-49.206
X51.078Y-51.746
X117.078Y-43.382
X117.078Y-45.922
X240.828Y-43.382
X240.828Y-45.922
X172.119Y-72.601
X172.119Y-75.141
X29.078Y-72.5
X29.078Y-75.04
X207.828Y-60.982
X207.828Y-63.522
X207.828Y-49.249
X207.828Y-51.789
X139.119Y-72.601
X139.119Y-75.141
X262.828Y-49.249
X262.828Y-51.789
X207.828Y-55.116
X207.828Y-57.656
X144.619Y-72.601
X144.619Y-75.141
X111.619Y-60.913
X111.619Y-63.453
X78.578Y-72.601
X78.578Y-75.141
X240.828Y-55.029
X240.828Y-57.569
X128.078Y-66.757
X128.078Y-69.297
X133.578Y-37.882
X133.578Y-40.422
X40.078Y-55.029
X40.078Y-57.569
X95.078Y-43.382
X95.078Y-45.922
X73.078Y-37.882
X73.078Y-40.422
T3
X54.851Y-86.81
X54.851Y-89.35
X115.304Y-94.395
X115.304Y-96.935
X115.304Y-99.475
T4
X68.324Y-91.003
X70.864Y-91.003
X73.404Y-91.003
T5
X66.989Y-100.575
X74.739Y-100.575
T6
X32.189Y-96.961
X32.189Y-102.041
T7
X45.974Y-100.203
X250.545Y-100.4
X269.545Y-28.6
X26.848Y-28.6
T1
G00X36.267Y-84.178
M15
G01X36.267Y-86.378
M16
G05
G00X37.968Y-90.078
M15
G01X40.167Y-90.078
M16
G05
G00X42.067Y-83.978
M15
G01X42.067Y-86.578
M16
G05
T0
M30
