%TF.GenerationSoftware,KiCad,Pcbnew,5.1.4-e60b266~84~ubuntu16.04.1*%
%TF.CreationDate,2019-09-30T10:39:30+07:00*%
%TF.ProjectId,led_agn,6c65645f-6167-46e2-9e6b-696361645f70,1.0*%
%TF.SameCoordinates,Original*%
%TF.FileFunction,Profile,NP*%
%FSLAX46Y46*%
G04 Gerber Fmt 4.6, Leading zero omitted, Abs format (unit mm)*
G04 Created by KiCad (PCBNEW 5.1.4-e60b266~84~ubuntu16.04.1) date 2019-09-30 10:39:30*
%MOMM*%
%LPD*%
G04 APERTURE LIST*
%ADD10C,0.050000*%
%ADD11C,0.100000*%
G04 APERTURE END LIST*
D10*
X23360806Y-23642320D02*
G75*
G03X23360806Y-23642320I-1666666J0D01*
G01*
X19194140Y-23642320D02*
X24194140Y-23642320D01*
X21694140Y-21142320D02*
X21694140Y-26142320D01*
X278513966Y-23637240D02*
G75*
G03X278513966Y-23637240I-1666666J0D01*
G01*
X274347300Y-23637240D02*
X279347300Y-23637240D01*
X276847300Y-21137240D02*
X276847300Y-26137240D01*
X278516506Y-106682540D02*
G75*
G03X278516506Y-106682540I-1666666J0D01*
G01*
X274349840Y-106682540D02*
X279349840Y-106682540D01*
X276849840Y-104182540D02*
X276849840Y-109182540D01*
D11*
X244500400Y-24094508D02*
X272470880Y-24094517D01*
X52865020Y-24094449D02*
X59893200Y-19094451D01*
X237469680Y-19094506D02*
X244500400Y-24094508D01*
X59893200Y-19094451D02*
X237469680Y-19094506D01*
X22860129Y-26131520D02*
X24886920Y-24094440D01*
X272470880Y-24094517D02*
X274474940Y-26098500D01*
X274479896Y-103982520D02*
X272470880Y-105996740D01*
X24866600Y-105996659D02*
X22865080Y-103982520D01*
X274474940Y-26098500D02*
X274479896Y-103982520D01*
X22865080Y-103982520D02*
X22860129Y-26131520D01*
X272470880Y-105996740D02*
X24866600Y-105996659D01*
X24886920Y-24094440D02*
X52865020Y-24094449D01*
M02*
