%TF.GenerationSoftware,KiCad,Pcbnew,5.1.4-e60b266~84~ubuntu16.04.1*%
%TF.CreationDate,2019-09-30T10:39:29+07:00*%
%TF.ProjectId,led_agn,6c65645f-6167-46e2-9e6b-696361645f70,1.0*%
%TF.SameCoordinates,Original*%
%TF.FileFunction,Copper,L1,Top*%
%TF.FilePolarity,Positive*%
%FSLAX46Y46*%
G04 Gerber Fmt 4.6, Leading zero omitted, Abs format (unit mm)*
G04 Created by KiCad (PCBNEW 5.1.4-e60b266~84~ubuntu16.04.1) date 2019-09-30 10:39:29*
%MOMM*%
%LPD*%
G04 APERTURE LIST*
%ADD10C,5.000000*%
%ADD11O,1.700000X1.700000*%
%ADD12R,1.700000X1.700000*%
%ADD13C,1.440000*%
%ADD14O,1.905000X2.000000*%
%ADD15R,1.905000X2.000000*%
%ADD16O,1.600000X2.400000*%
%ADD17R,1.600000X2.400000*%
%ADD18O,1.600000X1.600000*%
%ADD19R,1.600000X1.600000*%
%ADD20C,1.600000*%
%ADD21C,1.600000*%
%ADD22R,1.500000X1.500000*%
%ADD23C,1.500000*%
%ADD24C,3.000000*%
%ADD25R,3.000000X3.000000*%
%ADD26R,1.800000X4.400000*%
%ADD27O,1.800000X4.000000*%
%ADD28O,4.000000X1.800000*%
%ADD29C,1.800000*%
%ADD30R,1.800000X1.800000*%
%ADD31C,2.400000*%
%ADD32C,0.762000*%
%ADD33C,0.508000*%
%ADD34C,0.381000*%
G04 APERTURE END LIST*
D10*
X250544800Y-100400400D03*
X45974000Y-100203000D03*
X269544800Y-28600400D03*
X26847800Y-28600400D03*
D11*
X54851300Y-86809600D03*
D12*
X54851300Y-89349600D03*
D13*
X191920000Y-98801100D03*
X189380000Y-96261100D03*
X191920000Y-93721100D03*
D14*
X73404400Y-91002900D03*
X70864400Y-91002900D03*
D15*
X68324400Y-91002900D03*
D16*
X132112000Y-93130000D03*
X154972000Y-100750000D03*
X134652000Y-93130000D03*
X152432000Y-100750000D03*
X137192000Y-93130000D03*
X149892000Y-100750000D03*
X139732000Y-93130000D03*
X147352000Y-100750000D03*
X142272000Y-93130000D03*
X144812000Y-100750000D03*
X144812000Y-93130000D03*
X142272000Y-100750000D03*
X147352000Y-93130000D03*
X139732000Y-100750000D03*
X149892000Y-93130000D03*
X137192000Y-100750000D03*
X152432000Y-93130000D03*
X134652000Y-100750000D03*
X154972000Y-93130000D03*
D17*
X132112000Y-100750000D03*
D18*
X184177000Y-92461100D03*
X176557000Y-100081100D03*
X184177000Y-95001100D03*
X176557000Y-97541100D03*
X184177000Y-97541100D03*
X176557000Y-95001100D03*
X184177000Y-100081100D03*
D19*
X176557000Y-92461100D03*
D20*
X256345795Y-33872705D03*
D21*
X256345795Y-33872705D02*
X256345795Y-33872705D01*
D20*
X263530000Y-26688500D03*
X248329205Y-26688495D03*
D21*
X248329205Y-26688495D02*
X248329205Y-26688495D01*
D20*
X241145000Y-33872700D03*
X249030795Y-33872705D03*
D21*
X249030795Y-33872705D02*
X249030795Y-33872705D01*
D20*
X256215000Y-26688500D03*
X222492795Y-33872705D03*
D21*
X222492795Y-33872705D02*
X222492795Y-33872705D01*
D20*
X229677000Y-26688500D03*
X214760205Y-26688495D03*
D21*
X214760205Y-26688495D02*
X214760205Y-26688495D01*
D20*
X207576000Y-33872700D03*
X215202795Y-33872705D03*
D21*
X215202795Y-33872705D02*
X215202795Y-33872705D01*
D20*
X222387000Y-26688500D03*
X176089795Y-33872705D03*
D21*
X176089795Y-33872705D02*
X176089795Y-33872705D01*
D20*
X183274000Y-26688500D03*
X176171205Y-26688495D03*
D21*
X176171205Y-26688495D02*
X176171205Y-26688495D01*
D20*
X168987000Y-33872700D03*
X161663795Y-33872705D03*
D21*
X161663795Y-33872705D02*
X161663795Y-33872705D01*
D20*
X168848000Y-26688500D03*
X143996795Y-33872705D03*
D21*
X143996795Y-33872705D02*
X143996795Y-33872705D01*
D20*
X151181000Y-26688500D03*
X135847205Y-26688495D03*
D21*
X135847205Y-26688495D02*
X135847205Y-26688495D01*
D20*
X128663000Y-33872700D03*
X136216795Y-33872705D03*
D21*
X136216795Y-33872705D02*
X136216795Y-33872705D01*
D20*
X143401000Y-26688500D03*
X110761795Y-33872705D03*
D21*
X110761795Y-33872705D02*
X110761795Y-33872705D01*
D20*
X117946000Y-26688500D03*
X110091205Y-26688495D03*
D21*
X110091205Y-26688495D02*
X110091205Y-26688495D01*
D20*
X102907000Y-33872700D03*
X95145795Y-33872705D03*
D21*
X95145795Y-33872705D02*
X95145795Y-33872705D01*
D20*
X102330000Y-26688500D03*
X77177795Y-33872705D03*
D21*
X77177795Y-33872705D02*
X77177795Y-33872705D01*
D20*
X84362000Y-26688500D03*
X77013105Y-26688495D03*
D21*
X77013105Y-26688495D02*
X77013105Y-26688495D01*
D20*
X69828900Y-33872700D03*
X62719895Y-33872705D03*
D21*
X62719895Y-33872705D02*
X62719895Y-33872705D01*
D20*
X69904100Y-26688500D03*
X44529895Y-33872705D03*
D21*
X44529895Y-33872705D02*
X44529895Y-33872705D01*
D20*
X51714100Y-26688500D03*
X44646005Y-26688495D03*
D21*
X44646005Y-26688495D02*
X44646005Y-26688495D01*
D20*
X37461800Y-33872700D03*
X30393695Y-33872705D03*
D21*
X30393695Y-33872705D02*
X30393695Y-33872705D01*
D20*
X37577900Y-26688500D03*
X211827205Y-92668995D03*
D21*
X211827205Y-92668995D02*
X211827205Y-92668995D01*
D20*
X204643000Y-99853200D03*
X219265205Y-92668995D03*
D21*
X219265205Y-92668995D02*
X219265205Y-92668995D01*
D20*
X212081000Y-99853200D03*
X196845795Y-99853205D03*
D21*
X196845795Y-99853205D02*
X196845795Y-99853205D01*
D20*
X204030000Y-92669000D03*
D22*
X201606000Y-84145900D03*
D23*
X201606000Y-79065900D03*
X201606000Y-81605900D03*
D22*
X182783000Y-84145900D03*
D23*
X182783000Y-79065900D03*
X182783000Y-81605900D03*
D22*
X163961000Y-84145900D03*
D23*
X163961000Y-79065900D03*
X163961000Y-81605900D03*
D22*
X145138000Y-84145900D03*
D23*
X145138000Y-79065900D03*
X145138000Y-81605900D03*
D22*
X126315000Y-84145900D03*
D23*
X126315000Y-79065900D03*
X126315000Y-81605900D03*
D22*
X107493000Y-84145900D03*
D23*
X107493000Y-79065900D03*
X107493000Y-81605900D03*
D22*
X88670200Y-84145900D03*
D23*
X88670200Y-79065900D03*
X88670200Y-81605900D03*
D22*
X107493000Y-99490100D03*
D23*
X107493000Y-94410100D03*
X107493000Y-96950100D03*
D22*
X98677900Y-99490100D03*
D23*
X98677900Y-94410100D03*
X98677900Y-96950100D03*
D11*
X115304000Y-94395100D03*
X115304000Y-96935100D03*
D12*
X115304000Y-99475100D03*
D24*
X32189400Y-102040700D03*
D25*
X32189400Y-96960700D03*
D26*
X42067500Y-85278200D03*
D27*
X36267500Y-85278200D03*
D28*
X39067500Y-90078200D03*
D29*
X262828000Y-72715600D03*
D30*
X262828000Y-75255600D03*
D29*
X262828000Y-66848900D03*
D30*
X262828000Y-69388900D03*
D29*
X262828000Y-60982200D03*
D30*
X262828000Y-63522200D03*
D29*
X262828000Y-55029300D03*
D30*
X262828000Y-57569300D03*
D29*
X262828000Y-49248900D03*
D30*
X262828000Y-51788900D03*
D29*
X240828000Y-72715600D03*
D30*
X240828000Y-75255600D03*
D29*
X240828000Y-66848900D03*
D30*
X240828000Y-69388900D03*
D29*
X240828000Y-60982200D03*
D30*
X240828000Y-63522200D03*
D29*
X240828000Y-55029300D03*
D30*
X240828000Y-57569300D03*
D29*
X240828000Y-49248900D03*
D30*
X240828000Y-51788900D03*
D29*
X240828000Y-43382200D03*
D30*
X240828000Y-45922200D03*
D29*
X246328000Y-55029300D03*
D30*
X246328000Y-57569300D03*
D29*
X251828000Y-55029300D03*
D30*
X251828000Y-57569300D03*
D29*
X257328000Y-55029300D03*
D30*
X257328000Y-57569300D03*
D29*
X262828000Y-43382200D03*
D30*
X262828000Y-45922200D03*
D29*
X262828000Y-37882200D03*
D30*
X262828000Y-40422200D03*
D29*
X240828000Y-37882200D03*
D30*
X240828000Y-40422200D03*
D29*
X229828000Y-72715600D03*
D30*
X229828000Y-75255600D03*
D29*
X229828000Y-66848900D03*
D30*
X229828000Y-69388900D03*
D29*
X224328000Y-60982200D03*
D30*
X224328000Y-63522200D03*
D29*
X218828000Y-55115600D03*
D30*
X218828000Y-57655600D03*
D29*
X229828000Y-37882200D03*
D30*
X229828000Y-40422200D03*
D29*
X207828000Y-72715600D03*
D30*
X207828000Y-75255600D03*
D29*
X207828000Y-66848900D03*
D30*
X207828000Y-69388900D03*
D29*
X207828000Y-60982200D03*
D30*
X207828000Y-63522200D03*
D29*
X207828000Y-55115600D03*
D30*
X207828000Y-57655600D03*
D29*
X207828000Y-49248900D03*
D30*
X207828000Y-51788900D03*
D29*
X213328000Y-55115600D03*
D30*
X213328000Y-57655600D03*
D29*
X218828000Y-49248900D03*
D30*
X218828000Y-51788900D03*
D29*
X224328000Y-43382200D03*
D30*
X224328000Y-45922200D03*
D29*
X207828000Y-43382200D03*
D30*
X207828000Y-45922200D03*
D29*
X207828000Y-37882200D03*
D30*
X207828000Y-40422200D03*
D29*
X183078000Y-66757200D03*
D30*
X183078000Y-69297200D03*
D29*
X183078000Y-60913500D03*
D30*
X183078000Y-63453500D03*
D29*
X177578000Y-55069700D03*
D30*
X177578000Y-57609700D03*
D29*
X183078000Y-43382200D03*
D30*
X183078000Y-45922200D03*
D29*
X177578000Y-37882200D03*
D30*
X177578000Y-40422200D03*
D29*
X177619000Y-72601000D03*
D30*
X177619000Y-75141000D03*
D29*
X172119000Y-72601000D03*
D30*
X172119000Y-75141000D03*
D29*
X166619000Y-72601000D03*
D30*
X166619000Y-75141000D03*
D29*
X172078000Y-55069700D03*
D30*
X172078000Y-57609700D03*
D29*
X172078000Y-37882200D03*
D30*
X172078000Y-40422200D03*
D29*
X161078000Y-66757200D03*
D30*
X161078000Y-69297200D03*
D29*
X166578000Y-55069700D03*
D30*
X166578000Y-57609700D03*
D29*
X161078000Y-49275100D03*
D30*
X161078000Y-51815100D03*
D29*
X161078000Y-43382200D03*
D30*
X161078000Y-45922200D03*
D29*
X166578000Y-37882200D03*
D30*
X166578000Y-40422200D03*
D29*
X150119000Y-72601000D03*
D30*
X150119000Y-75141000D03*
D29*
X144619000Y-72601000D03*
D30*
X144619000Y-75141000D03*
D29*
X139119000Y-72601000D03*
D30*
X139119000Y-75141000D03*
D29*
X139078000Y-55069700D03*
D30*
X139078000Y-57609700D03*
D29*
X144578000Y-37882200D03*
D30*
X144578000Y-40422200D03*
D29*
X150078000Y-37882200D03*
D30*
X150078000Y-40422200D03*
D29*
X128078000Y-66757200D03*
D30*
X128078000Y-69297200D03*
D29*
X128078000Y-60913500D03*
D30*
X128078000Y-63453500D03*
D29*
X128078000Y-55069700D03*
D30*
X128078000Y-57609700D03*
D29*
X128078000Y-49226000D03*
D30*
X128078000Y-51766000D03*
D29*
X128078000Y-43382200D03*
D30*
X128078000Y-45922200D03*
D29*
X128119000Y-72601000D03*
D30*
X128119000Y-75141000D03*
D29*
X133619000Y-72601000D03*
D30*
X133619000Y-75141000D03*
D29*
X133578000Y-55069700D03*
D30*
X133578000Y-57609700D03*
D29*
X139078000Y-37882200D03*
D30*
X139078000Y-40422200D03*
D29*
X133578000Y-37882200D03*
D30*
X133578000Y-40422200D03*
D29*
X128078000Y-37882200D03*
D30*
X128078000Y-40422200D03*
D29*
X117119000Y-66757200D03*
D30*
X117119000Y-69297200D03*
D29*
X117119000Y-60913500D03*
D30*
X117119000Y-63453500D03*
D29*
X117119000Y-55069700D03*
D30*
X117119000Y-57609700D03*
D29*
X117119000Y-49226000D03*
D30*
X117119000Y-51766000D03*
D29*
X117078000Y-43382200D03*
D30*
X117078000Y-45922200D03*
D29*
X117078000Y-37882200D03*
D30*
X117078000Y-40422200D03*
D29*
X117119000Y-72601000D03*
D30*
X117119000Y-75141000D03*
D29*
X111619000Y-60913500D03*
D30*
X111619000Y-63453500D03*
D29*
X106119000Y-55069700D03*
D30*
X106119000Y-57609700D03*
D29*
X100619000Y-49226000D03*
D30*
X100619000Y-51766000D03*
D29*
X95077900Y-37882200D03*
D30*
X95077900Y-40422200D03*
D29*
X95118600Y-72601000D03*
D30*
X95118600Y-75141000D03*
D29*
X95118600Y-66757200D03*
D30*
X95118600Y-69297200D03*
D29*
X95118600Y-60913500D03*
D30*
X95118600Y-63453500D03*
D29*
X95118600Y-55069700D03*
D30*
X95118600Y-57609700D03*
D29*
X95118600Y-49226000D03*
D30*
X95118600Y-51766000D03*
D29*
X95077900Y-43382200D03*
D30*
X95077900Y-45922200D03*
D29*
X78577900Y-72601000D03*
D30*
X78577900Y-75141000D03*
D29*
X84077900Y-66757200D03*
D30*
X84077900Y-69297200D03*
D29*
X84077900Y-60913500D03*
D30*
X84077900Y-63453500D03*
D29*
X84047400Y-55069700D03*
D30*
X84047400Y-57609700D03*
D29*
X78547400Y-55069700D03*
D30*
X78547400Y-57609700D03*
D29*
X84077900Y-43382200D03*
D30*
X84077900Y-45922200D03*
D29*
X73077900Y-72601000D03*
D30*
X73077900Y-75141000D03*
D29*
X73047400Y-55069700D03*
D30*
X73047400Y-57609700D03*
D29*
X67577900Y-37882200D03*
D30*
X67577900Y-40422200D03*
D29*
X73077900Y-37882200D03*
D30*
X73077900Y-40422200D03*
D29*
X78577900Y-37882200D03*
D30*
X78577900Y-40422200D03*
D29*
X67577900Y-72601000D03*
D30*
X67577900Y-75141000D03*
D29*
X62077900Y-66757200D03*
D30*
X62077900Y-69297200D03*
D29*
X62077900Y-60913500D03*
D30*
X62077900Y-63453500D03*
D29*
X62047400Y-55069700D03*
D30*
X62047400Y-57609700D03*
D29*
X62047400Y-49226000D03*
D30*
X62047400Y-51766000D03*
D29*
X62077900Y-43382200D03*
D30*
X62077900Y-45922200D03*
D29*
X51077900Y-72499900D03*
D30*
X51077900Y-75039900D03*
D29*
X51077900Y-66676400D03*
D30*
X51077900Y-69216400D03*
D29*
X51077900Y-60852800D03*
D30*
X51077900Y-63392800D03*
D29*
X51077900Y-55029300D03*
D30*
X51077900Y-57569300D03*
D29*
X51077900Y-49205800D03*
D30*
X51077900Y-51745800D03*
D29*
X51077900Y-43382200D03*
D30*
X51077900Y-45922200D03*
D29*
X45577900Y-55029300D03*
D30*
X45577900Y-57569300D03*
D29*
X40077900Y-55029300D03*
D30*
X40077900Y-57569300D03*
D29*
X34577900Y-55029300D03*
D30*
X34577900Y-57569300D03*
D29*
X45577900Y-37882200D03*
D30*
X45577900Y-40422200D03*
D29*
X40077900Y-37882200D03*
D30*
X40077900Y-40422200D03*
D29*
X34577900Y-37882200D03*
D30*
X34577900Y-40422200D03*
D29*
X29077900Y-72499900D03*
D30*
X29077900Y-75039900D03*
D29*
X29077900Y-66676400D03*
D30*
X29077900Y-69216400D03*
D29*
X29077900Y-60852800D03*
D30*
X29077900Y-63392800D03*
D29*
X29077900Y-55029300D03*
D30*
X29077900Y-57569300D03*
D29*
X29077900Y-49205800D03*
D30*
X29077900Y-51745800D03*
D29*
X29077900Y-43382200D03*
D30*
X29077900Y-45922200D03*
D29*
X269056000Y-72715600D03*
D30*
X269056000Y-75255600D03*
D31*
X66989400Y-100575000D03*
X74739400Y-100575000D03*
D20*
X167108000Y-96261100D03*
D19*
X169608000Y-96261100D03*
D20*
X82187600Y-100275000D03*
D19*
X84687600Y-100275000D03*
D20*
X56951500Y-100275000D03*
D19*
X59451500Y-100275000D03*
D32*
X66736600Y-91002900D02*
X62543300Y-86809600D01*
X62543300Y-86809600D02*
X54851300Y-86809600D01*
X67530500Y-91002900D02*
X66736600Y-91002900D01*
X68324400Y-91002900D02*
X67530500Y-91002900D01*
X37577900Y-26688500D02*
X38050000Y-26688500D01*
X256215000Y-26688500D02*
X263530000Y-26688500D01*
X249344100Y-25673600D02*
X250359000Y-26688500D01*
X250359000Y-26688500D02*
X256215000Y-26688500D01*
X248329200Y-26688500D02*
X249344100Y-25673600D01*
X248329200Y-26688500D02*
X247314400Y-27703300D01*
X229677000Y-26688500D02*
X246299500Y-26688500D01*
X246299500Y-26688500D02*
X247314400Y-27703300D01*
X222387000Y-26688500D02*
X229677000Y-26688500D01*
X214252800Y-27195900D02*
X213745400Y-27703300D01*
X214760200Y-26688500D02*
X214252800Y-27195900D01*
X183274000Y-26942200D02*
X212984200Y-26942200D01*
X212984200Y-26942200D02*
X213745400Y-27703300D01*
X183274000Y-26942200D02*
X183274000Y-26688500D01*
X175663800Y-27195900D02*
X175156400Y-27703300D01*
X176171200Y-26688500D02*
X175663800Y-27195900D01*
X168848000Y-26688500D02*
X174141500Y-26688500D01*
X174141500Y-26688500D02*
X175156400Y-27703300D01*
X151181000Y-26688500D02*
X168848000Y-26688500D01*
X143401000Y-26688500D02*
X151181000Y-26688500D01*
X136862100Y-25673600D02*
X137877000Y-26688500D01*
X137877000Y-26688500D02*
X143401000Y-26688500D01*
X135847200Y-26688500D02*
X136862100Y-25673600D01*
X117946000Y-26942200D02*
X134071200Y-26942200D01*
X134071200Y-26942200D02*
X134832400Y-27703300D01*
X117946000Y-26942200D02*
X117946000Y-26688500D01*
X135847200Y-26688500D02*
X134832400Y-27703300D01*
X109583800Y-27195900D02*
X109076400Y-27703300D01*
X110091200Y-26688500D02*
X109583800Y-27195900D01*
X102330000Y-26688500D02*
X108061500Y-26688500D01*
X108061500Y-26688500D02*
X109076400Y-27703300D01*
X84362000Y-26688500D02*
X102330000Y-26688500D01*
X76505700Y-27195900D02*
X75998300Y-27703300D01*
X77013100Y-26688500D02*
X76505700Y-27195900D01*
X69904100Y-26688500D02*
X74983400Y-26688500D01*
X74983400Y-26688500D02*
X75998300Y-27703300D01*
X51714100Y-26688500D02*
X69904100Y-26688500D01*
X59451500Y-100275000D02*
X59451500Y-98839700D01*
X59451500Y-98839700D02*
X66736600Y-91554600D01*
X66736600Y-91554600D02*
X66736600Y-91002900D01*
X53366000Y-86809600D02*
X54851300Y-86809600D01*
X35536500Y-26688500D02*
X26111200Y-36113800D01*
X44712200Y-78155800D02*
X53366000Y-86809600D01*
X26111200Y-36113800D02*
X26111200Y-74856100D01*
X26111200Y-74856100D02*
X29410900Y-78155800D01*
X37577900Y-26688500D02*
X35536500Y-26688500D01*
X29410900Y-78155800D02*
X44712200Y-78155800D01*
X44646010Y-26688500D02*
X44646005Y-26688495D01*
X51714100Y-26688500D02*
X44646010Y-26688500D01*
X37577905Y-26688495D02*
X37577900Y-26688500D01*
X44646005Y-26688495D02*
X37577905Y-26688495D01*
X214760210Y-26688500D02*
X214760205Y-26688495D01*
X222387000Y-26688500D02*
X214760210Y-26688500D01*
X176171210Y-26688500D02*
X176171205Y-26688495D01*
X183274000Y-26688500D02*
X176171210Y-26688500D01*
X110091210Y-26688500D02*
X110091205Y-26688495D01*
X117946000Y-26688500D02*
X110091210Y-26688500D01*
X77013110Y-26688500D02*
X77013105Y-26688495D01*
X84362000Y-26688500D02*
X77013110Y-26688500D01*
D33*
X114624900Y-99475100D02*
X113936400Y-98786600D01*
X113936400Y-98786600D02*
X113936400Y-93815900D01*
X113936400Y-93815900D02*
X114740500Y-93011800D01*
X114740500Y-93011800D02*
X131993800Y-93011800D01*
X131993800Y-93011800D02*
X132112000Y-93130000D01*
X114624900Y-99475100D02*
X113945700Y-99475100D01*
X115304000Y-99475100D02*
X114624900Y-99475100D01*
X204030000Y-92669000D02*
X203822100Y-92461100D01*
X203822100Y-92461100D02*
X184177000Y-92461100D01*
X176557000Y-100081100D02*
X175248700Y-100081100D01*
X73404400Y-91002900D02*
X73404400Y-99240000D01*
X73404400Y-99240000D02*
X74739400Y-100575000D01*
X74739400Y-100575000D02*
X75762300Y-101597900D01*
X75762300Y-101597900D02*
X83364700Y-101597900D01*
X83364700Y-101597900D02*
X84687600Y-100275000D01*
X98677900Y-99490100D02*
X99936200Y-99490100D01*
X113945700Y-99475100D02*
X112672400Y-100748400D01*
X112672400Y-100748400D02*
X101194500Y-100748400D01*
X101194500Y-100748400D02*
X99936200Y-99490100D01*
X98677900Y-99490100D02*
X97419600Y-99490100D01*
X84687600Y-100275000D02*
X96634700Y-100275000D01*
X96634700Y-100275000D02*
X97419600Y-99490100D01*
X119936900Y-103428800D02*
X171901000Y-103428800D01*
X115304000Y-99475100D02*
X115983200Y-99475100D01*
X171901000Y-103428800D02*
X175248700Y-100081100D01*
X115983200Y-99475100D02*
X119936900Y-103428800D01*
X206224200Y-90474800D02*
X204030000Y-92669000D01*
X212674200Y-90474800D02*
X206224200Y-90474800D01*
X213385400Y-102616000D02*
X214731600Y-101269800D01*
X214731600Y-92532200D02*
X212674200Y-90474800D01*
X177783600Y-102616000D02*
X213385400Y-102616000D01*
X175248700Y-100081100D02*
X177783600Y-102616000D01*
X214731600Y-101269800D02*
X214731600Y-92532200D01*
D34*
X184799400Y-97541100D02*
X182259400Y-95001100D01*
X182259400Y-95001100D02*
X176557000Y-95001100D01*
X184799400Y-97541100D02*
X185421800Y-97541100D01*
X184177000Y-97541100D02*
X184799400Y-97541100D01*
X185421800Y-97541100D02*
X186681800Y-98801100D01*
X186681800Y-98801100D02*
X191920000Y-98801100D01*
X176557000Y-95001100D02*
X176160400Y-95001100D01*
X175942600Y-95001100D02*
X175312200Y-95001100D01*
X175942600Y-95001100D02*
X176160400Y-95001100D01*
X169608000Y-96261100D02*
X174052200Y-96261100D01*
X174052200Y-96261100D02*
X175312200Y-95001100D01*
X232894480Y-79039720D02*
X219265200Y-92669000D01*
X262731880Y-79039720D02*
X232894480Y-79039720D01*
X269056000Y-72715600D02*
X262731880Y-79039720D01*
D33*
X29077900Y-43382200D02*
X29077900Y-35188500D01*
X29077900Y-35188500D02*
X30393700Y-33872700D01*
X29077900Y-45922200D02*
X29077900Y-49205800D01*
X29077900Y-51745800D02*
X29077900Y-55029300D01*
X29077900Y-57569300D02*
X29077900Y-60852800D01*
X29077900Y-63392800D02*
X29077900Y-66676400D01*
X29077900Y-69216400D02*
X29077900Y-72499900D01*
X51077900Y-75039900D02*
X52486200Y-75039900D01*
X52486200Y-75039900D02*
X56512200Y-79065900D01*
X56512200Y-79065900D02*
X88670200Y-79065900D01*
X45577900Y-75039900D02*
X51077900Y-75039900D01*
X29077900Y-75039900D02*
X45577900Y-75039900D01*
X45577900Y-57569300D02*
X45577900Y-75039900D01*
X34577900Y-37882200D02*
X34577900Y-36756600D01*
X34577900Y-36756600D02*
X37461800Y-33872700D01*
X34577900Y-40422200D02*
X35986200Y-40422200D01*
X35986200Y-40422200D02*
X38526200Y-37882200D01*
X38526200Y-37882200D02*
X40077900Y-37882200D01*
X40077900Y-40422200D02*
X41486200Y-40422200D01*
X41486200Y-40422200D02*
X44026200Y-37882200D01*
X44026200Y-37882200D02*
X45577900Y-37882200D01*
X45577900Y-40422200D02*
X45577900Y-44029300D01*
X45577900Y-44029300D02*
X34577900Y-55029300D01*
X34577900Y-57569300D02*
X35986200Y-57569300D01*
X35986200Y-57569300D02*
X38526200Y-55029300D01*
X38526200Y-55029300D02*
X40077900Y-55029300D01*
X40077900Y-57569300D02*
X41486200Y-57569300D01*
X41486200Y-57569300D02*
X44026200Y-55029300D01*
X44026200Y-55029300D02*
X45577900Y-55029300D01*
X51077900Y-43382200D02*
X51077900Y-40420700D01*
X51077900Y-40420700D02*
X44529900Y-33872700D01*
X51077900Y-45922200D02*
X51077900Y-49205800D01*
X51077900Y-51745800D02*
X51077900Y-55029300D01*
X51077900Y-57569300D02*
X51077900Y-60852800D01*
X51077900Y-63392800D02*
X51077900Y-66676400D01*
X51077900Y-69216400D02*
X51077900Y-72499900D01*
X62719900Y-33872700D02*
X61794800Y-34797800D01*
X62077900Y-43382200D02*
X62077900Y-35080900D01*
X62077900Y-35080900D02*
X61794800Y-34797800D01*
X62077900Y-45922200D02*
X62077900Y-47330500D01*
X62077900Y-47330500D02*
X62047400Y-47361000D01*
X62047400Y-47361000D02*
X62047400Y-49226000D01*
X62047400Y-51766000D02*
X62047400Y-55069700D01*
X62047400Y-57609700D02*
X62047400Y-59018000D01*
X62047400Y-59018000D02*
X62077900Y-59048500D01*
X62077900Y-59048500D02*
X62077900Y-60913500D01*
X62077900Y-63453500D02*
X62077900Y-66757200D01*
X62077900Y-69297200D02*
X64274100Y-69297200D01*
X64274100Y-69297200D02*
X67577900Y-72601000D01*
X78577900Y-75141000D02*
X79986200Y-75141000D01*
X79986200Y-75141000D02*
X81394500Y-76549300D01*
X81394500Y-76549300D02*
X104976400Y-76549300D01*
X104976400Y-76549300D02*
X107493000Y-79065900D01*
X73077900Y-75141000D02*
X78577900Y-75141000D01*
X67577900Y-75141000D02*
X73077900Y-75141000D01*
X78577900Y-37882200D02*
X74568400Y-33872700D01*
X74568400Y-33872700D02*
X69828900Y-33872700D01*
X78577900Y-40422200D02*
X77169600Y-40422200D01*
X77169600Y-40422200D02*
X74629600Y-37882200D01*
X74629600Y-37882200D02*
X73077900Y-37882200D01*
X73077900Y-40422200D02*
X71669600Y-40422200D01*
X71669600Y-40422200D02*
X69129600Y-37882200D01*
X69129600Y-37882200D02*
X67577900Y-37882200D01*
X67577900Y-40422200D02*
X67577900Y-49600200D01*
X67577900Y-49600200D02*
X73047400Y-55069700D01*
X73047400Y-57609700D02*
X73047400Y-72570500D01*
X73047400Y-72570500D02*
X73077900Y-72601000D01*
X84077900Y-43382200D02*
X84077900Y-40772800D01*
X84077900Y-40772800D02*
X77177800Y-33872700D01*
X84077900Y-45922200D02*
X84077900Y-49539200D01*
X84077900Y-49539200D02*
X78547400Y-55069700D01*
X78547400Y-57609700D02*
X79955700Y-57609700D01*
X79955700Y-57609700D02*
X82495700Y-55069700D01*
X82495700Y-55069700D02*
X84047400Y-55069700D01*
X84047400Y-57609700D02*
X84047400Y-59018000D01*
X84047400Y-59018000D02*
X84077900Y-59048500D01*
X84077900Y-59048500D02*
X84077900Y-60913500D01*
X84077900Y-63453500D02*
X84077900Y-66757200D01*
X84077900Y-69297200D02*
X81881700Y-69297200D01*
X81881700Y-69297200D02*
X78577900Y-72601000D01*
X95077900Y-43382200D02*
X93653000Y-41957300D01*
X93653000Y-41957300D02*
X93653000Y-35365500D01*
X93653000Y-35365500D02*
X95145800Y-33872700D01*
X95077900Y-45922200D02*
X95077900Y-47330500D01*
X95077900Y-47330500D02*
X95118600Y-47371200D01*
X95118600Y-47371200D02*
X95118600Y-49226000D01*
X95118600Y-51766000D02*
X95118600Y-55069700D01*
X95118600Y-57609700D02*
X95118600Y-60913500D01*
X95118600Y-63453500D02*
X95118600Y-66757200D01*
X95118600Y-69297200D02*
X95118600Y-72601000D01*
X117119000Y-69297200D02*
X117119000Y-70705500D01*
X117119000Y-70705500D02*
X117295200Y-70705500D01*
X117295200Y-70705500D02*
X118527300Y-71937600D01*
X118527300Y-71937600D02*
X118527300Y-75141000D01*
X117119000Y-75141000D02*
X118527300Y-75141000D01*
X118527300Y-75141000D02*
X122452200Y-79065900D01*
X122452200Y-79065900D02*
X126315000Y-79065900D01*
X95118600Y-75141000D02*
X117119000Y-75141000D01*
X95077900Y-37882200D02*
X98897500Y-37882200D01*
X98897500Y-37882200D02*
X102907000Y-33872700D01*
X95077900Y-40422200D02*
X95077900Y-41830500D01*
X95077900Y-41830500D02*
X95518000Y-41830500D01*
X95518000Y-41830500D02*
X100619000Y-46931500D01*
X100619000Y-46931500D02*
X100619000Y-49226000D01*
X100619000Y-51766000D02*
X102815300Y-51766000D01*
X102815300Y-51766000D02*
X106119000Y-55069700D01*
X106119000Y-57609700D02*
X108315200Y-57609700D01*
X108315200Y-57609700D02*
X111619000Y-60913500D01*
X111619000Y-63453500D02*
X111619000Y-67101000D01*
X111619000Y-67101000D02*
X117119000Y-72601000D01*
X117078000Y-37882200D02*
X114771300Y-37882200D01*
X114771300Y-37882200D02*
X110761800Y-33872700D01*
X117078000Y-40422200D02*
X117078000Y-43382200D01*
X117078000Y-45922200D02*
X117078000Y-47330500D01*
X117078000Y-47330500D02*
X117119000Y-47371500D01*
X117119000Y-47371500D02*
X117119000Y-49226000D01*
X117119000Y-51766000D02*
X117119000Y-55069700D01*
X117119000Y-57609700D02*
X117119000Y-60913500D01*
X117119000Y-63453500D02*
X117119000Y-66757200D01*
X136216800Y-33872700D02*
X135291700Y-34797800D01*
X128078000Y-37882200D02*
X131162400Y-34797800D01*
X131162400Y-34797800D02*
X135291700Y-34797800D01*
X128078000Y-40422200D02*
X129486300Y-40422200D01*
X129486300Y-40422200D02*
X132026300Y-37882200D01*
X132026300Y-37882200D02*
X133578000Y-37882200D01*
X133578000Y-40422200D02*
X134986300Y-40422200D01*
X134986300Y-40422200D02*
X137526300Y-37882200D01*
X137526300Y-37882200D02*
X139078000Y-37882200D01*
X139078000Y-40422200D02*
X139078000Y-41830500D01*
X139078000Y-41830500D02*
X133578000Y-47330500D01*
X133578000Y-47330500D02*
X133578000Y-55069700D01*
X133578000Y-57609700D02*
X133578000Y-72560000D01*
X133578000Y-72560000D02*
X133619000Y-72601000D01*
X133619000Y-75141000D02*
X132210700Y-75141000D01*
X132210700Y-75141000D02*
X129670700Y-72601000D01*
X129670700Y-72601000D02*
X128119000Y-72601000D01*
X145138000Y-77039900D02*
X131426200Y-77039900D01*
X131426200Y-77039900D02*
X129527300Y-75141000D01*
X148710700Y-75141000D02*
X146811800Y-77039900D01*
X146811800Y-77039900D02*
X145138000Y-77039900D01*
X145138000Y-77039900D02*
X145138000Y-79065900D01*
X128119000Y-75141000D02*
X129527300Y-75141000D01*
X150119000Y-75141000D02*
X148710700Y-75141000D01*
X128119000Y-75141000D02*
X126669700Y-73691700D01*
X126669700Y-73691700D02*
X126669700Y-72025600D01*
X126669700Y-72025600D02*
X127989800Y-70705500D01*
X127989800Y-70705500D02*
X128078000Y-70705500D01*
X128078000Y-69297200D02*
X128078000Y-70705500D01*
X128078000Y-43382200D02*
X126628900Y-41933100D01*
X126628900Y-41933100D02*
X126628900Y-35906800D01*
X126628900Y-35906800D02*
X128663000Y-33872700D01*
X128078000Y-45922200D02*
X128078000Y-49226000D01*
X128078000Y-51766000D02*
X128078000Y-55069700D01*
X128078000Y-57609700D02*
X128078000Y-60913500D01*
X128078000Y-63453500D02*
X128078000Y-66757200D01*
X143996800Y-33872700D02*
X144921900Y-32947600D01*
X150078000Y-37882200D02*
X146068500Y-33872700D01*
X146068500Y-33872700D02*
X145846900Y-33872700D01*
X145846900Y-33872700D02*
X144921900Y-32947600D01*
X150078000Y-40422200D02*
X148669700Y-40422200D01*
X148669700Y-40422200D02*
X146129700Y-37882200D01*
X146129700Y-37882200D02*
X144578000Y-37882200D01*
X144578000Y-40422200D02*
X144578000Y-49569700D01*
X144578000Y-49569700D02*
X139078000Y-55069700D01*
X139078000Y-57609700D02*
X139078000Y-59018000D01*
X139078000Y-59018000D02*
X139119000Y-59059000D01*
X139119000Y-59059000D02*
X139119000Y-72601000D01*
X139119000Y-75141000D02*
X140527300Y-75141000D01*
X140527300Y-75141000D02*
X143067300Y-72601000D01*
X143067300Y-72601000D02*
X144619000Y-72601000D01*
X144619000Y-75141000D02*
X146027300Y-75141000D01*
X146027300Y-75141000D02*
X148567300Y-72601000D01*
X148567300Y-72601000D02*
X150119000Y-72601000D01*
X166578000Y-37882200D02*
X165673300Y-37882200D01*
X165673300Y-37882200D02*
X161663800Y-33872700D01*
X166578000Y-40422200D02*
X164038000Y-40422200D01*
X164038000Y-40422200D02*
X161078000Y-43382200D01*
X161078000Y-45922200D02*
X161078000Y-49275100D01*
X161078000Y-51815100D02*
X163323400Y-51815100D01*
X163323400Y-51815100D02*
X166578000Y-55069700D01*
X166578000Y-57609700D02*
X166578000Y-61257200D01*
X166578000Y-61257200D02*
X161078000Y-66757200D01*
X177619000Y-75141000D02*
X179027300Y-75141000D01*
X183078000Y-69297200D02*
X183078000Y-70705500D01*
X161078000Y-69297200D02*
X161078000Y-70705500D01*
X161078000Y-70705500D02*
X163961000Y-73588500D01*
X163961000Y-73588500D02*
X163961000Y-79065900D01*
X179027300Y-75141000D02*
X179027300Y-74756200D01*
X179027300Y-74756200D02*
X183078000Y-70705500D01*
X177619000Y-75141000D02*
X176210700Y-75141000D01*
X176210700Y-75141000D02*
X172285800Y-79065900D01*
X172285800Y-79065900D02*
X163961000Y-79065900D01*
X172078000Y-37882200D02*
X172078000Y-36963700D01*
X172078000Y-36963700D02*
X168987000Y-33872700D01*
X172078000Y-40422200D02*
X172078000Y-55069700D01*
X172078000Y-57609700D02*
X172078000Y-67142000D01*
X172078000Y-67142000D02*
X166619000Y-72601000D01*
X166619000Y-75141000D02*
X168027300Y-75141000D01*
X168027300Y-75141000D02*
X170567300Y-72601000D01*
X170567300Y-72601000D02*
X172119000Y-72601000D01*
X172119000Y-75141000D02*
X173527300Y-75141000D01*
X173527300Y-75141000D02*
X176067300Y-72601000D01*
X176067300Y-72601000D02*
X177619000Y-72601000D01*
X176089800Y-33872700D02*
X175164700Y-34797800D01*
X177578000Y-37882200D02*
X175164700Y-35468900D01*
X175164700Y-35468900D02*
X175164700Y-34797800D01*
X177578000Y-40422200D02*
X180118000Y-40422200D01*
X180118000Y-40422200D02*
X183078000Y-43382200D01*
X183078000Y-45922200D02*
X183078000Y-47330500D01*
X183078000Y-47330500D02*
X177578000Y-52830500D01*
X177578000Y-52830500D02*
X177578000Y-55069700D01*
X177578000Y-57609700D02*
X179774200Y-57609700D01*
X179774200Y-57609700D02*
X183078000Y-60913500D01*
X183078000Y-63453500D02*
X183078000Y-66757200D01*
X207828000Y-37882200D02*
X211193300Y-37882200D01*
X211193300Y-37882200D02*
X215202800Y-33872700D01*
X207828000Y-40422200D02*
X207828000Y-43382200D01*
X207828000Y-45922200D02*
X209236300Y-45922200D01*
X209236300Y-45922200D02*
X211776300Y-43382200D01*
X211776300Y-43382200D02*
X224328000Y-43382200D01*
X224328000Y-45922200D02*
X222154700Y-45922200D01*
X222154700Y-45922200D02*
X218828000Y-49248900D01*
X218828000Y-51788900D02*
X217419700Y-51788900D01*
X217419700Y-51788900D02*
X214093000Y-55115600D01*
X214093000Y-55115600D02*
X213328000Y-55115600D01*
X207828000Y-75255600D02*
X186593300Y-75255600D01*
X186593300Y-75255600D02*
X182783000Y-79065900D01*
X229828000Y-75255600D02*
X207828000Y-75255600D01*
X213328000Y-57655600D02*
X213328000Y-69755600D01*
X213328000Y-69755600D02*
X207828000Y-75255600D01*
X207828000Y-51788900D02*
X207828000Y-55115600D01*
X207828000Y-57655600D02*
X207828000Y-60982200D01*
X207828000Y-63522200D02*
X207828000Y-66848900D01*
X207828000Y-69388900D02*
X207828000Y-72715600D01*
X229828000Y-37882200D02*
X226502300Y-37882200D01*
X226502300Y-37882200D02*
X222492800Y-33872700D01*
X229828000Y-40422200D02*
X229828000Y-44115600D01*
X229828000Y-44115600D02*
X218828000Y-55115600D01*
X218828000Y-57655600D02*
X221001400Y-57655600D01*
X221001400Y-57655600D02*
X224328000Y-60982200D01*
X224328000Y-63522200D02*
X226501300Y-63522200D01*
X226501300Y-63522200D02*
X229828000Y-66848900D01*
X229828000Y-69388900D02*
X229828000Y-72715600D01*
X240828000Y-37882200D02*
X245021300Y-37882200D01*
X245021300Y-37882200D02*
X249030800Y-33872700D01*
X240828000Y-40422200D02*
X260288000Y-40422200D01*
X260288000Y-40422200D02*
X262828000Y-37882200D01*
X262828000Y-40422200D02*
X262828000Y-43382200D01*
X262828000Y-45922200D02*
X262828000Y-47330500D01*
X262828000Y-47330500D02*
X262740000Y-47330500D01*
X262740000Y-47330500D02*
X257328000Y-52742500D01*
X257328000Y-52742500D02*
X257328000Y-55029300D01*
X257328000Y-57569300D02*
X255919700Y-57569300D01*
X255919700Y-57569300D02*
X253379700Y-55029300D01*
X253379700Y-55029300D02*
X251828000Y-55029300D01*
X251828000Y-57569300D02*
X250419700Y-57569300D01*
X250419700Y-57569300D02*
X247879700Y-55029300D01*
X247879700Y-55029300D02*
X246328000Y-55029300D01*
X262828000Y-75255600D02*
X240828000Y-75255600D01*
X246328000Y-57569300D02*
X246328000Y-69755600D01*
X246328000Y-69755600D02*
X240828000Y-75255600D01*
X231880458Y-79065900D02*
X202666660Y-79065900D01*
X240828000Y-75255600D02*
X235690758Y-75255600D01*
X202666660Y-79065900D02*
X201606000Y-79065900D01*
X235690758Y-75255600D02*
X231880458Y-79065900D01*
X240828000Y-43382200D02*
X239400400Y-41954600D01*
X239400400Y-41954600D02*
X239400400Y-35617300D01*
X239400400Y-35617300D02*
X241145000Y-33872700D01*
X240828000Y-45922200D02*
X240828000Y-49248900D01*
X240828000Y-51788900D02*
X240828000Y-55029300D01*
X240828000Y-57569300D02*
X240828000Y-60982200D01*
X240828000Y-63522200D02*
X240828000Y-66848900D01*
X240828000Y-69388900D02*
X240828000Y-72715600D01*
X256345800Y-33872700D02*
X257270900Y-32947600D01*
X262828000Y-49248900D02*
X264282000Y-47794900D01*
X264282000Y-47794900D02*
X264282000Y-37298800D01*
X264282000Y-37298800D02*
X260855900Y-33872700D01*
X260855900Y-33872700D02*
X258195900Y-33872700D01*
X258195900Y-33872700D02*
X257270900Y-32947600D01*
X262828000Y-51788900D02*
X262828000Y-55029300D01*
X262828000Y-57569300D02*
X262828000Y-60982200D01*
X262828000Y-63522200D02*
X262828000Y-66848900D01*
X262828000Y-69388900D02*
X262828000Y-72715600D01*
D32*
X45386000Y-87061400D02*
X47674200Y-89349600D01*
X47674200Y-89349600D02*
X54851300Y-89349600D01*
X43602800Y-85278200D02*
X45386000Y-87061400D01*
X32189400Y-96960700D02*
X35486700Y-96960700D01*
X35486700Y-96960700D02*
X45386000Y-87061400D01*
X42067500Y-85278200D02*
X43602800Y-85278200D01*
D34*
X115304000Y-96935100D02*
X129941900Y-96935100D01*
X129941900Y-96935100D02*
X132112000Y-99105200D01*
X132112000Y-100750000D02*
X132112000Y-99105200D01*
X137192000Y-100750000D02*
X137192000Y-99105200D01*
X98677900Y-94410100D02*
X97473800Y-95614200D01*
X97473800Y-95614200D02*
X97473800Y-97480400D01*
X97473800Y-97480400D02*
X98179000Y-98185600D01*
X98179000Y-98185600D02*
X107956000Y-98185600D01*
X107956000Y-98185600D02*
X114656400Y-91485200D01*
X114656400Y-91485200D02*
X132649300Y-91485200D01*
X132649300Y-91485200D02*
X133382000Y-92217900D01*
X133382000Y-92217900D02*
X133382000Y-95295200D01*
X133382000Y-95295200D02*
X137192000Y-99105200D01*
X107493000Y-94410100D02*
X98677900Y-94410100D01*
X98677900Y-94410100D02*
X98677900Y-91613600D01*
X98677900Y-91613600D02*
X88670200Y-81605900D01*
X107493000Y-96950100D02*
X108694900Y-95748200D01*
X108694900Y-95748200D02*
X108694900Y-93057200D01*
X108694900Y-93057200D02*
X106294200Y-90656500D01*
X106294200Y-90656500D02*
X106294200Y-81082700D01*
X106294200Y-81082700D02*
X107041000Y-80335900D01*
X107041000Y-80335900D02*
X145600600Y-80335900D01*
X145600600Y-80335900D02*
X146332900Y-81068200D01*
X146332900Y-81068200D02*
X146332900Y-86846200D01*
X146332900Y-86846200D02*
X142272000Y-90907100D01*
X142272000Y-90907100D02*
X142272000Y-93130000D01*
X98677900Y-96950100D02*
X107493000Y-96950100D01*
X139732000Y-100750000D02*
X139732000Y-98968900D01*
X139732000Y-98968900D02*
X135947100Y-95184000D01*
X135947100Y-95184000D02*
X135947100Y-92235400D01*
X135947100Y-92235400D02*
X133926200Y-90214500D01*
X133926200Y-90214500D02*
X116101600Y-90214500D01*
X116101600Y-90214500D02*
X107493000Y-81605900D01*
X139732000Y-100867300D02*
X139732000Y-100750000D01*
X139732000Y-100867300D02*
X139732000Y-102394800D01*
X134652000Y-100750000D02*
X134652000Y-102394800D01*
X134652000Y-102394800D02*
X139732000Y-102394800D01*
X126315000Y-81605900D02*
X127852600Y-81605900D01*
X127852600Y-81605900D02*
X138462000Y-92215300D01*
X138462000Y-92215300D02*
X138462000Y-95136400D01*
X138462000Y-95136400D02*
X142430800Y-99105200D01*
X142430800Y-99105200D02*
X147352000Y-99105200D01*
X142272000Y-99264000D02*
X142430800Y-99105200D01*
X147352000Y-100750000D02*
X147352000Y-99105200D01*
X142272000Y-100750000D02*
X142272000Y-99264000D01*
X149892000Y-100973000D02*
X149892000Y-100750000D01*
X149892000Y-100973000D02*
X149892000Y-102394800D01*
X144812000Y-100750000D02*
X144812000Y-102394800D01*
X144812000Y-102394800D02*
X149892000Y-102394800D01*
X163961000Y-81605900D02*
X156332700Y-81605900D01*
X156332700Y-81605900D02*
X146082000Y-91856600D01*
X146082000Y-91856600D02*
X146082000Y-94041200D01*
X146082000Y-94041200D02*
X146815600Y-94774800D01*
X146815600Y-94774800D02*
X149892000Y-94774800D01*
X149892000Y-93130000D02*
X149892000Y-94774800D01*
X152432000Y-100750000D02*
X152432000Y-97314800D01*
X152432000Y-97314800D02*
X149892000Y-94774800D01*
X147352000Y-93130000D02*
X147352000Y-91485200D01*
X152432000Y-91485200D02*
X147352000Y-91485200D01*
X152432000Y-91644000D02*
X152432000Y-91485200D01*
X152432000Y-92307600D02*
X152432000Y-91644000D01*
X152432000Y-93130000D02*
X152432000Y-92750500D01*
X152432000Y-92307600D02*
X152432000Y-92750500D01*
X182783000Y-81605900D02*
X172903700Y-91485200D01*
X172903700Y-91485200D02*
X152432000Y-91485200D01*
X139732000Y-93130000D02*
X139732000Y-94774800D01*
X144812000Y-93130000D02*
X144812000Y-94774800D01*
X144812000Y-94774800D02*
X139732000Y-94774800D01*
X144812000Y-92307600D02*
X144812000Y-93130000D01*
X144812000Y-92307600D02*
X144812000Y-91485200D01*
X144812000Y-91485200D02*
X155961300Y-80335900D01*
X155961300Y-80335900D02*
X200336000Y-80335900D01*
X200336000Y-80335900D02*
X201606000Y-81605900D01*
X184177000Y-95001100D02*
X185421800Y-95001100D01*
X197726000Y-98973000D02*
X196389100Y-97636200D01*
X196389100Y-97636200D02*
X188056900Y-97636200D01*
X188056900Y-97636200D02*
X185421800Y-95001100D01*
X204643000Y-99853200D02*
X198606100Y-99853200D01*
X198606100Y-99853200D02*
X197726000Y-98973000D01*
X196845800Y-99853200D02*
X197726000Y-98973000D01*
X154972000Y-93130000D02*
X154972000Y-94774800D01*
X176557000Y-97541100D02*
X157738300Y-97541100D01*
X157738300Y-97541100D02*
X154972000Y-94774800D01*
X177171500Y-97541100D02*
X176557000Y-97541100D01*
X177171500Y-97541100D02*
X177801800Y-97541100D01*
X177801800Y-97541100D02*
X181638800Y-101378100D01*
X181638800Y-101378100D02*
X210556100Y-101378100D01*
X210556100Y-101378100D02*
X212081000Y-99853200D01*
X211827200Y-92669000D02*
X208235100Y-96261100D01*
X208235100Y-96261100D02*
X189380000Y-96261100D01*
D33*
X207828000Y-49248900D02*
X206356700Y-47777600D01*
X206356700Y-47777600D02*
X206356700Y-35092000D01*
X206356700Y-35092000D02*
X207576000Y-33872700D01*
M02*
