G04 #@! TF.GenerationSoftware,KiCad,Pcbnew,5.1.4-e60b266~84~ubuntu16.04.1*
G04 #@! TF.CreationDate,2019-08-22T14:48:52+07:00*
G04 #@! TF.ProjectId,clock555,636c6f63-6b35-4353-952e-6b696361645f,rev?*
G04 #@! TF.SameCoordinates,Original*
G04 #@! TF.FileFunction,Soldermask,Bot*
G04 #@! TF.FilePolarity,Negative*
%FSLAX46Y46*%
G04 Gerber Fmt 4.6, Leading zero omitted, Abs format (unit mm)*
G04 Created by KiCad (PCBNEW 5.1.4-e60b266~84~ubuntu16.04.1) date 2019-08-22 14:48:52*
%MOMM*%
%LPD*%
G04 APERTURE LIST*
%ADD10C,0.100000*%
G04 APERTURE END LIST*
D10*
G36*
X134075623Y-120014513D02*
G01*
X134236042Y-120063176D01*
X134303161Y-120099052D01*
X134383878Y-120142196D01*
X134513459Y-120248541D01*
X134619804Y-120378122D01*
X134619805Y-120378124D01*
X134698824Y-120525958D01*
X134747487Y-120686377D01*
X134763917Y-120853200D01*
X134747487Y-121020023D01*
X134698824Y-121180442D01*
X134658277Y-121256300D01*
X134619804Y-121328278D01*
X134513459Y-121457859D01*
X134383878Y-121564204D01*
X134383876Y-121564205D01*
X134236042Y-121643224D01*
X134075623Y-121691887D01*
X133950604Y-121704200D01*
X133866996Y-121704200D01*
X133741977Y-121691887D01*
X133581558Y-121643224D01*
X133433724Y-121564205D01*
X133433722Y-121564204D01*
X133304141Y-121457859D01*
X133197796Y-121328278D01*
X133159323Y-121256300D01*
X133118776Y-121180442D01*
X133070113Y-121020023D01*
X133053683Y-120853200D01*
X133070113Y-120686377D01*
X133118776Y-120525958D01*
X133197795Y-120378124D01*
X133197796Y-120378122D01*
X133304141Y-120248541D01*
X133433722Y-120142196D01*
X133514439Y-120099052D01*
X133581558Y-120063176D01*
X133741977Y-120014513D01*
X133866996Y-120002200D01*
X133950604Y-120002200D01*
X134075623Y-120014513D01*
X134075623Y-120014513D01*
G37*
G36*
X131617028Y-120034903D02*
G01*
X131771900Y-120099053D01*
X131911281Y-120192185D01*
X132029815Y-120310719D01*
X132122947Y-120450100D01*
X132187097Y-120604972D01*
X132219800Y-120769384D01*
X132219800Y-120937016D01*
X132187097Y-121101428D01*
X132122947Y-121256300D01*
X132029815Y-121395681D01*
X131911281Y-121514215D01*
X131771900Y-121607347D01*
X131617028Y-121671497D01*
X131452616Y-121704200D01*
X131284984Y-121704200D01*
X131120572Y-121671497D01*
X130965700Y-121607347D01*
X130826319Y-121514215D01*
X130707785Y-121395681D01*
X130614653Y-121256300D01*
X130550503Y-121101428D01*
X130517800Y-120937016D01*
X130517800Y-120769384D01*
X130550503Y-120604972D01*
X130614653Y-120450100D01*
X130707785Y-120310719D01*
X130826319Y-120192185D01*
X130965700Y-120099053D01*
X131120572Y-120034903D01*
X131284984Y-120002200D01*
X131452616Y-120002200D01*
X131617028Y-120034903D01*
X131617028Y-120034903D01*
G37*
G36*
X155829553Y-118688522D02*
G01*
X155921594Y-118726647D01*
X156051759Y-118780563D01*
X156251742Y-118914187D01*
X156421813Y-119084258D01*
X156555437Y-119284241D01*
X156647478Y-119506448D01*
X156694400Y-119742341D01*
X156694400Y-119982859D01*
X156647478Y-120218752D01*
X156555437Y-120440959D01*
X156421813Y-120640942D01*
X156251742Y-120811013D01*
X156051759Y-120944637D01*
X155921594Y-120998553D01*
X155829553Y-121036678D01*
X155593659Y-121083600D01*
X155353141Y-121083600D01*
X155117247Y-121036678D01*
X155025206Y-120998553D01*
X154895041Y-120944637D01*
X154695058Y-120811013D01*
X154524987Y-120640942D01*
X154391363Y-120440959D01*
X154299322Y-120218752D01*
X154252400Y-119982859D01*
X154252400Y-119742341D01*
X154299322Y-119506448D01*
X154391363Y-119284241D01*
X154524987Y-119084258D01*
X154695058Y-118914187D01*
X154895041Y-118780563D01*
X155025206Y-118726647D01*
X155117247Y-118688522D01*
X155353141Y-118641600D01*
X155593659Y-118641600D01*
X155829553Y-118688522D01*
X155829553Y-118688522D01*
G37*
G36*
X146040382Y-119064513D02*
G01*
X146200801Y-119113176D01*
X146333465Y-119184086D01*
X146348637Y-119192196D01*
X146478218Y-119298541D01*
X146584563Y-119428122D01*
X146584564Y-119428124D01*
X146663583Y-119575958D01*
X146712246Y-119736377D01*
X146728676Y-119903200D01*
X146712246Y-120070023D01*
X146663583Y-120230442D01*
X146620674Y-120310719D01*
X146584563Y-120378278D01*
X146478218Y-120507859D01*
X146348637Y-120614204D01*
X146348635Y-120614205D01*
X146200801Y-120693224D01*
X146040382Y-120741887D01*
X145915363Y-120754200D01*
X145831755Y-120754200D01*
X145706736Y-120741887D01*
X145546317Y-120693224D01*
X145398483Y-120614205D01*
X145398481Y-120614204D01*
X145268900Y-120507859D01*
X145162555Y-120378278D01*
X145126444Y-120310719D01*
X145083535Y-120230442D01*
X145034872Y-120070023D01*
X145018442Y-119903200D01*
X145034872Y-119736377D01*
X145083535Y-119575958D01*
X145162554Y-119428124D01*
X145162555Y-119428122D01*
X145268900Y-119298541D01*
X145398481Y-119192196D01*
X145413653Y-119184086D01*
X145546317Y-119113176D01*
X145706736Y-119064513D01*
X145831755Y-119052200D01*
X145915363Y-119052200D01*
X146040382Y-119064513D01*
X146040382Y-119064513D01*
G37*
G36*
X138420382Y-119064513D02*
G01*
X138580801Y-119113176D01*
X138713465Y-119184086D01*
X138728637Y-119192196D01*
X138858218Y-119298541D01*
X138964563Y-119428122D01*
X138964564Y-119428124D01*
X139043583Y-119575958D01*
X139092246Y-119736377D01*
X139108676Y-119903200D01*
X139092246Y-120070023D01*
X139043583Y-120230442D01*
X139000674Y-120310719D01*
X138964563Y-120378278D01*
X138858218Y-120507859D01*
X138728637Y-120614204D01*
X138728635Y-120614205D01*
X138580801Y-120693224D01*
X138420382Y-120741887D01*
X138295363Y-120754200D01*
X138211755Y-120754200D01*
X138086736Y-120741887D01*
X137926317Y-120693224D01*
X137778483Y-120614205D01*
X137778481Y-120614204D01*
X137648900Y-120507859D01*
X137542555Y-120378278D01*
X137506444Y-120310719D01*
X137463535Y-120230442D01*
X137414872Y-120070023D01*
X137398442Y-119903200D01*
X137414872Y-119736377D01*
X137463535Y-119575958D01*
X137542554Y-119428124D01*
X137542555Y-119428122D01*
X137648900Y-119298541D01*
X137778481Y-119192196D01*
X137793653Y-119184086D01*
X137926317Y-119113176D01*
X138086736Y-119064513D01*
X138211755Y-119052200D01*
X138295363Y-119052200D01*
X138420382Y-119064513D01*
X138420382Y-119064513D01*
G37*
G36*
X146040382Y-116524513D02*
G01*
X146200801Y-116573176D01*
X146296260Y-116624200D01*
X146348637Y-116652196D01*
X146478218Y-116758541D01*
X146584563Y-116888122D01*
X146584564Y-116888124D01*
X146663583Y-117035958D01*
X146712246Y-117196377D01*
X146728676Y-117363200D01*
X146712246Y-117530023D01*
X146663583Y-117690442D01*
X146592673Y-117823106D01*
X146584563Y-117838278D01*
X146478218Y-117967859D01*
X146348637Y-118074204D01*
X146348635Y-118074205D01*
X146200801Y-118153224D01*
X146040382Y-118201887D01*
X145915363Y-118214200D01*
X145831755Y-118214200D01*
X145706736Y-118201887D01*
X145546317Y-118153224D01*
X145398483Y-118074205D01*
X145398481Y-118074204D01*
X145268900Y-117967859D01*
X145162555Y-117838278D01*
X145154445Y-117823106D01*
X145083535Y-117690442D01*
X145034872Y-117530023D01*
X145018442Y-117363200D01*
X145034872Y-117196377D01*
X145083535Y-117035958D01*
X145162554Y-116888124D01*
X145162555Y-116888122D01*
X145268900Y-116758541D01*
X145398481Y-116652196D01*
X145450858Y-116624200D01*
X145546317Y-116573176D01*
X145706736Y-116524513D01*
X145831755Y-116512200D01*
X145915363Y-116512200D01*
X146040382Y-116524513D01*
X146040382Y-116524513D01*
G37*
G36*
X138420382Y-116524513D02*
G01*
X138580801Y-116573176D01*
X138676260Y-116624200D01*
X138728637Y-116652196D01*
X138858218Y-116758541D01*
X138964563Y-116888122D01*
X138964564Y-116888124D01*
X139043583Y-117035958D01*
X139092246Y-117196377D01*
X139108676Y-117363200D01*
X139092246Y-117530023D01*
X139043583Y-117690442D01*
X138972673Y-117823106D01*
X138964563Y-117838278D01*
X138858218Y-117967859D01*
X138728637Y-118074204D01*
X138728635Y-118074205D01*
X138580801Y-118153224D01*
X138420382Y-118201887D01*
X138295363Y-118214200D01*
X138211755Y-118214200D01*
X138086736Y-118201887D01*
X137926317Y-118153224D01*
X137778483Y-118074205D01*
X137778481Y-118074204D01*
X137648900Y-117967859D01*
X137542555Y-117838278D01*
X137534445Y-117823106D01*
X137463535Y-117690442D01*
X137414872Y-117530023D01*
X137398442Y-117363200D01*
X137414872Y-117196377D01*
X137463535Y-117035958D01*
X137542554Y-116888124D01*
X137542555Y-116888122D01*
X137648900Y-116758541D01*
X137778481Y-116652196D01*
X137830858Y-116624200D01*
X137926317Y-116573176D01*
X138086736Y-116524513D01*
X138211755Y-116512200D01*
X138295363Y-116512200D01*
X138420382Y-116524513D01*
X138420382Y-116524513D01*
G37*
G36*
X132219800Y-116624200D02*
G01*
X130517800Y-116624200D01*
X130517800Y-114922200D01*
X132219800Y-114922200D01*
X132219800Y-116624200D01*
X132219800Y-116624200D01*
G37*
G36*
X150711605Y-113665061D02*
G01*
X150829553Y-113688522D01*
X150921594Y-113726647D01*
X151051759Y-113780563D01*
X151251742Y-113914187D01*
X151421813Y-114084258D01*
X151555437Y-114284241D01*
X151581897Y-114348122D01*
X151643135Y-114495961D01*
X151647478Y-114506448D01*
X151694400Y-114742341D01*
X151694400Y-114982859D01*
X151647478Y-115218752D01*
X151555437Y-115440959D01*
X151421813Y-115640942D01*
X151251742Y-115811013D01*
X151051759Y-115944637D01*
X150921594Y-115998553D01*
X150829553Y-116036678D01*
X150593659Y-116083600D01*
X150353141Y-116083600D01*
X150117247Y-116036678D01*
X150025206Y-115998553D01*
X149895041Y-115944637D01*
X149695058Y-115811013D01*
X149524987Y-115640942D01*
X149391363Y-115440959D01*
X149299322Y-115218752D01*
X149252400Y-114982859D01*
X149252400Y-114742341D01*
X149299322Y-114506448D01*
X149303666Y-114495961D01*
X149364903Y-114348122D01*
X149391363Y-114284241D01*
X149524987Y-114084258D01*
X149695058Y-113914187D01*
X149895041Y-113780563D01*
X150025206Y-113726647D01*
X150117247Y-113688522D01*
X150235195Y-113665061D01*
X150353141Y-113641600D01*
X150593659Y-113641600D01*
X150711605Y-113665061D01*
X150711605Y-113665061D01*
G37*
G36*
X138420382Y-113984513D02*
G01*
X138580801Y-114033176D01*
X138689908Y-114091495D01*
X138728637Y-114112196D01*
X138858218Y-114218541D01*
X138964563Y-114348122D01*
X138964564Y-114348124D01*
X139043583Y-114495958D01*
X139092246Y-114656377D01*
X139108676Y-114823200D01*
X139092246Y-114990023D01*
X139043583Y-115150442D01*
X139007070Y-115218753D01*
X138964563Y-115298278D01*
X138858218Y-115427859D01*
X138728637Y-115534204D01*
X138728635Y-115534205D01*
X138580801Y-115613224D01*
X138420382Y-115661887D01*
X138295363Y-115674200D01*
X138211755Y-115674200D01*
X138086736Y-115661887D01*
X137926317Y-115613224D01*
X137778483Y-115534205D01*
X137778481Y-115534204D01*
X137648900Y-115427859D01*
X137542555Y-115298278D01*
X137500048Y-115218753D01*
X137463535Y-115150442D01*
X137414872Y-114990023D01*
X137398442Y-114823200D01*
X137414872Y-114656377D01*
X137463535Y-114495958D01*
X137542554Y-114348124D01*
X137542555Y-114348122D01*
X137648900Y-114218541D01*
X137778481Y-114112196D01*
X137817210Y-114091495D01*
X137926317Y-114033176D01*
X138086736Y-113984513D01*
X138211755Y-113972200D01*
X138295363Y-113972200D01*
X138420382Y-113984513D01*
X138420382Y-113984513D01*
G37*
G36*
X146040382Y-113984513D02*
G01*
X146200801Y-114033176D01*
X146309908Y-114091495D01*
X146348637Y-114112196D01*
X146478218Y-114218541D01*
X146584563Y-114348122D01*
X146584564Y-114348124D01*
X146663583Y-114495958D01*
X146712246Y-114656377D01*
X146728676Y-114823200D01*
X146712246Y-114990023D01*
X146663583Y-115150442D01*
X146627070Y-115218753D01*
X146584563Y-115298278D01*
X146478218Y-115427859D01*
X146348637Y-115534204D01*
X146348635Y-115534205D01*
X146200801Y-115613224D01*
X146040382Y-115661887D01*
X145915363Y-115674200D01*
X145831755Y-115674200D01*
X145706736Y-115661887D01*
X145546317Y-115613224D01*
X145398483Y-115534205D01*
X145398481Y-115534204D01*
X145268900Y-115427859D01*
X145162555Y-115298278D01*
X145120048Y-115218753D01*
X145083535Y-115150442D01*
X145034872Y-114990023D01*
X145018442Y-114823200D01*
X145034872Y-114656377D01*
X145083535Y-114495958D01*
X145162554Y-114348124D01*
X145162555Y-114348122D01*
X145268900Y-114218541D01*
X145398481Y-114112196D01*
X145437210Y-114091495D01*
X145546317Y-114033176D01*
X145706736Y-113984513D01*
X145831755Y-113972200D01*
X145915363Y-113972200D01*
X146040382Y-113984513D01*
X146040382Y-113984513D01*
G37*
G36*
X131617028Y-112454903D02*
G01*
X131771900Y-112519053D01*
X131911281Y-112612185D01*
X132029815Y-112730719D01*
X132122947Y-112870100D01*
X132187097Y-113024972D01*
X132219800Y-113189384D01*
X132219800Y-113357016D01*
X132187097Y-113521428D01*
X132122947Y-113676300D01*
X132029815Y-113815681D01*
X131911281Y-113934215D01*
X131771900Y-114027347D01*
X131617028Y-114091497D01*
X131452616Y-114124200D01*
X131284984Y-114124200D01*
X131120572Y-114091497D01*
X130965700Y-114027347D01*
X130826319Y-113934215D01*
X130707785Y-113815681D01*
X130614653Y-113676300D01*
X130550503Y-113521428D01*
X130517800Y-113357016D01*
X130517800Y-113189384D01*
X130550503Y-113024972D01*
X130614653Y-112870100D01*
X130707785Y-112730719D01*
X130826319Y-112612185D01*
X130965700Y-112519053D01*
X131120572Y-112454903D01*
X131284984Y-112422200D01*
X131452616Y-112422200D01*
X131617028Y-112454903D01*
X131617028Y-112454903D01*
G37*
G36*
X139104559Y-113134200D02*
G01*
X137402559Y-113134200D01*
X137402559Y-111432200D01*
X139104559Y-111432200D01*
X139104559Y-113134200D01*
X139104559Y-113134200D01*
G37*
G36*
X146040382Y-111444513D02*
G01*
X146200801Y-111493176D01*
X146333465Y-111564086D01*
X146348637Y-111572196D01*
X146478218Y-111678541D01*
X146584563Y-111808122D01*
X146584564Y-111808124D01*
X146663583Y-111955958D01*
X146712246Y-112116377D01*
X146728676Y-112283200D01*
X146712246Y-112450023D01*
X146663583Y-112610442D01*
X146599293Y-112730720D01*
X146584563Y-112758278D01*
X146478218Y-112887859D01*
X146348637Y-112994204D01*
X146348635Y-112994205D01*
X146200801Y-113073224D01*
X146040382Y-113121887D01*
X145915363Y-113134200D01*
X145831755Y-113134200D01*
X145706736Y-113121887D01*
X145546317Y-113073224D01*
X145398483Y-112994205D01*
X145398481Y-112994204D01*
X145268900Y-112887859D01*
X145162555Y-112758278D01*
X145147825Y-112730720D01*
X145083535Y-112610442D01*
X145034872Y-112450023D01*
X145018442Y-112283200D01*
X145034872Y-112116377D01*
X145083535Y-111955958D01*
X145162554Y-111808124D01*
X145162555Y-111808122D01*
X145268900Y-111678541D01*
X145398481Y-111572196D01*
X145413653Y-111564086D01*
X145546317Y-111493176D01*
X145706736Y-111444513D01*
X145831755Y-111432200D01*
X145915363Y-111432200D01*
X146040382Y-111444513D01*
X146040382Y-111444513D01*
G37*
G36*
X155711605Y-108665061D02*
G01*
X155829553Y-108688522D01*
X155921594Y-108726647D01*
X156051759Y-108780563D01*
X156251742Y-108914187D01*
X156421813Y-109084258D01*
X156555437Y-109284241D01*
X156647478Y-109506448D01*
X156694400Y-109742341D01*
X156694400Y-109982859D01*
X156647478Y-110218752D01*
X156555437Y-110440959D01*
X156421813Y-110640942D01*
X156251742Y-110811013D01*
X156051759Y-110944637D01*
X155921594Y-110998553D01*
X155829553Y-111036678D01*
X155593659Y-111083600D01*
X155353141Y-111083600D01*
X155117247Y-111036678D01*
X155025206Y-110998553D01*
X154895041Y-110944637D01*
X154695058Y-110811013D01*
X154524987Y-110640942D01*
X154391363Y-110440959D01*
X154299322Y-110218752D01*
X154252400Y-109982859D01*
X154252400Y-109742341D01*
X154299322Y-109506448D01*
X154391363Y-109284241D01*
X154524987Y-109084258D01*
X154695058Y-108914187D01*
X154895041Y-108780563D01*
X155025206Y-108726647D01*
X155117247Y-108688522D01*
X155235195Y-108665061D01*
X155353141Y-108641600D01*
X155593659Y-108641600D01*
X155711605Y-108665061D01*
X155711605Y-108665061D01*
G37*
G36*
X141695623Y-106044513D02*
G01*
X141856042Y-106093176D01*
X141923161Y-106129052D01*
X142003878Y-106172196D01*
X142133459Y-106278541D01*
X142239804Y-106408122D01*
X142239805Y-106408124D01*
X142318824Y-106555958D01*
X142367487Y-106716377D01*
X142383917Y-106883200D01*
X142367487Y-107050023D01*
X142318824Y-107210442D01*
X142278277Y-107286300D01*
X142239804Y-107358278D01*
X142133459Y-107487859D01*
X142003878Y-107594204D01*
X142003876Y-107594205D01*
X141856042Y-107673224D01*
X141695623Y-107721887D01*
X141570604Y-107734200D01*
X141486996Y-107734200D01*
X141361977Y-107721887D01*
X141201558Y-107673224D01*
X141053724Y-107594205D01*
X141053722Y-107594204D01*
X140924141Y-107487859D01*
X140817796Y-107358278D01*
X140779323Y-107286300D01*
X140738776Y-107210442D01*
X140690113Y-107050023D01*
X140673683Y-106883200D01*
X140690113Y-106716377D01*
X140738776Y-106555958D01*
X140817795Y-106408124D01*
X140817796Y-106408122D01*
X140924141Y-106278541D01*
X141053722Y-106172196D01*
X141134439Y-106129052D01*
X141201558Y-106093176D01*
X141361977Y-106044513D01*
X141486996Y-106032200D01*
X141570604Y-106032200D01*
X141695623Y-106044513D01*
X141695623Y-106044513D01*
G37*
G36*
X144317028Y-106064903D02*
G01*
X144471900Y-106129053D01*
X144611281Y-106222185D01*
X144729815Y-106340719D01*
X144822947Y-106480100D01*
X144887097Y-106634972D01*
X144919800Y-106799384D01*
X144919800Y-106967016D01*
X144887097Y-107131428D01*
X144822947Y-107286300D01*
X144729815Y-107425681D01*
X144611281Y-107544215D01*
X144471900Y-107637347D01*
X144317028Y-107701497D01*
X144152616Y-107734200D01*
X143984984Y-107734200D01*
X143820572Y-107701497D01*
X143665700Y-107637347D01*
X143526319Y-107544215D01*
X143407785Y-107425681D01*
X143314653Y-107286300D01*
X143250503Y-107131428D01*
X143217800Y-106967016D01*
X143217800Y-106799384D01*
X143250503Y-106634972D01*
X143314653Y-106480100D01*
X143407785Y-106340719D01*
X143526319Y-106222185D01*
X143665700Y-106129053D01*
X143820572Y-106064903D01*
X143984984Y-106032200D01*
X144152616Y-106032200D01*
X144317028Y-106064903D01*
X144317028Y-106064903D01*
G37*
G36*
X134186195Y-104698746D02*
G01*
X134359266Y-104770434D01*
X134359267Y-104770435D01*
X134515027Y-104874510D01*
X134647490Y-105006973D01*
X134647491Y-105006975D01*
X134751566Y-105162734D01*
X134823254Y-105335805D01*
X134859800Y-105519533D01*
X134859800Y-105706867D01*
X134823254Y-105890595D01*
X134751566Y-106063666D01*
X134731848Y-106093176D01*
X134647490Y-106219427D01*
X134515027Y-106351890D01*
X134436618Y-106404281D01*
X134359266Y-106455966D01*
X134186195Y-106527654D01*
X134002467Y-106564200D01*
X133815133Y-106564200D01*
X133631405Y-106527654D01*
X133458334Y-106455966D01*
X133380982Y-106404281D01*
X133302573Y-106351890D01*
X133170110Y-106219427D01*
X133085752Y-106093176D01*
X133066034Y-106063666D01*
X132994346Y-105890595D01*
X132957800Y-105706867D01*
X132957800Y-105519533D01*
X132994346Y-105335805D01*
X133066034Y-105162734D01*
X133170109Y-105006975D01*
X133170110Y-105006973D01*
X133302573Y-104874510D01*
X133458333Y-104770435D01*
X133458334Y-104770434D01*
X133631405Y-104698746D01*
X133815133Y-104662200D01*
X134002467Y-104662200D01*
X134186195Y-104698746D01*
X134186195Y-104698746D01*
G37*
G36*
X137399800Y-106564200D02*
G01*
X135497800Y-106564200D01*
X135497800Y-104662200D01*
X137399800Y-104662200D01*
X137399800Y-106564200D01*
X137399800Y-106564200D01*
G37*
G36*
X150667028Y-102254903D02*
G01*
X150821900Y-102319053D01*
X150961281Y-102412185D01*
X151079815Y-102530719D01*
X151172947Y-102670100D01*
X151237097Y-102824972D01*
X151269800Y-102989384D01*
X151269800Y-103157016D01*
X151237097Y-103321428D01*
X151172947Y-103476300D01*
X151079815Y-103615681D01*
X150961281Y-103734215D01*
X150821900Y-103827347D01*
X150667028Y-103891497D01*
X150502616Y-103924200D01*
X150334984Y-103924200D01*
X150170572Y-103891497D01*
X150015700Y-103827347D01*
X149876319Y-103734215D01*
X149757785Y-103615681D01*
X149664653Y-103476300D01*
X149600503Y-103321428D01*
X149567800Y-103157016D01*
X149567800Y-102989384D01*
X149600503Y-102824972D01*
X149664653Y-102670100D01*
X149757785Y-102530719D01*
X149876319Y-102412185D01*
X150015700Y-102319053D01*
X150170572Y-102254903D01*
X150334984Y-102222200D01*
X150502616Y-102222200D01*
X150667028Y-102254903D01*
X150667028Y-102254903D01*
G37*
G36*
X148045623Y-102234513D02*
G01*
X148206042Y-102283176D01*
X148273161Y-102319052D01*
X148353878Y-102362196D01*
X148483459Y-102468541D01*
X148589804Y-102598122D01*
X148589805Y-102598124D01*
X148668824Y-102745958D01*
X148717487Y-102906377D01*
X148733917Y-103073200D01*
X148717487Y-103240023D01*
X148668824Y-103400442D01*
X148628277Y-103476300D01*
X148589804Y-103548278D01*
X148483459Y-103677859D01*
X148353878Y-103784204D01*
X148353876Y-103784205D01*
X148206042Y-103863224D01*
X148045623Y-103911887D01*
X147920604Y-103924200D01*
X147836996Y-103924200D01*
X147711977Y-103911887D01*
X147551558Y-103863224D01*
X147403724Y-103784205D01*
X147403722Y-103784204D01*
X147274141Y-103677859D01*
X147167796Y-103548278D01*
X147129323Y-103476300D01*
X147088776Y-103400442D01*
X147040113Y-103240023D01*
X147023683Y-103073200D01*
X147040113Y-102906377D01*
X147088776Y-102745958D01*
X147167795Y-102598124D01*
X147167796Y-102598122D01*
X147274141Y-102468541D01*
X147403722Y-102362196D01*
X147484439Y-102319052D01*
X147551558Y-102283176D01*
X147711977Y-102234513D01*
X147836996Y-102222200D01*
X147920604Y-102222200D01*
X148045623Y-102234513D01*
X148045623Y-102234513D01*
G37*
M02*
