M48
; DRILL file {KiCad 5.1.4-e60b266~84~ubuntu16.04.1} date Kam 22 Agu 2019 02:48:55  WIB
; FORMAT={-:-/ absolute / metric / decimal}
; #@! TF.CreationDate,2019-08-22T14:48:55+07:00
; #@! TF.GenerationSoftware,Kicad,Pcbnew,5.1.4-e60b266~84~ubuntu16.04.1
; #@! TF.FileFunction,Plated,1,2,PTH
FMAT,2
METRIC
T1C0.800
T2C0.900
T3C1.300
%
G90
G05
T1
X147.879Y-103.073
X150.419Y-103.073
X138.254Y-112.283
X138.254Y-114.823
X138.254Y-117.363
X138.254Y-119.903
X145.874Y-112.283
X145.874Y-114.823
X145.874Y-117.363
X145.874Y-119.903
X141.529Y-106.883
X144.069Y-106.883
X131.369Y-120.853
X133.909Y-120.853
X131.369Y-113.273
X131.369Y-115.773
T2
X133.909Y-105.613
X136.449Y-105.613
T3
X150.473Y-114.863
X155.473Y-109.863
X155.473Y-119.863
T0
M30
